<svg xmlns="http://www.w3.org/2000/svg" viewBox="0 0 285.39 188.37"><defs><style>.cls-1{fill:#b1cc43;}.cls-2{fill:#11b1bf;}.cls-3{fill:#fff;}</style></defs><title>white</title><g id="Слой_2" data-name="Слой 2"><g id="Слой_1-2" data-name="Слой 1"><path class="cls-1" d="M183.79,43.24c-12.52,20.67-14.18,44.2-14.18,44.2l-9.7-17.09L148.16,77a13.21,13.21,0,0,1-18-4.91l-29,16.43a47.08,47.08,0,0,0,84.09-42.3c-.62-1.12-1.1-2.15-1.5-3"/><path class="cls-2" d="M142.3,17.75c.47-7.5-6.45-17.67-6.45-17.67a53.51,53.51,0,0,0-4.39,12.22,23.19,23.19,0,0,1,2.45,6.24,48.39,48.39,0,0,1,8.39-.79"/><path class="cls-2" d="M130.18,72.11s0,0,0,0l-.06-.09,0,0a13.21,13.21,0,0,1,5-18l11.75-6.67-9.69-17.09S158.46,41,182.83,40.76c.8,0,3.8-3.8,3.18-4.64s-1.73,1-5.89,1c-27.73,0-29.89-16.53-37.44-17.86a46.61,46.61,0,0,0-10,1.08C131.76,11,119.52,0,119.52,0S114.94,19.6,121,24.54a47.11,47.11,0,0,0-19.82,64Zm10.57-49.92a3,3,0,1,1-3.05,3,3,3,0,0,1,3.05-3"/><path class="cls-3" d="M77.82,133.93H57.13a3.2,3.2,0,0,0-3.21,3.19v48a3.21,3.21,0,0,0,3.21,3.2H77.82A17.3,17.3,0,0,0,95.11,171V151.21a17.29,17.29,0,0,0-17.29-17.28m3.94,37a6.93,6.93,0,0,1-6.93,6.93H67.39V144.51h7.44a6.92,6.92,0,0,1,6.93,6.92Z"/><path class="cls-3" d="M145.22,137c-5.57,15.92-10.55,31.84-16.13,47.75-.5,1.77-1.91,3.49-3.87,3.59h-.72c-1.1,0-2.21,0-3.31,0h-.12c-.3,0-.6,0-.89,0h-1.8a4.48,4.48,0,0,1-4.07-3.15q-5.24-15.12-10.49-30.25l-.09-.25c-2-5.82-3.93-11.64-6-17.46l-.12-.37a2.06,2.06,0,0,1,2-2.91c.94,0,1.89,0,2.84,0h1.9c1.48,0,3,.09,4.42.2a3,3,0,0,1,1.57.82l0,0a8.71,8.71,0,0,1,1.73,3.73c2.79,10.08,5.86,20.08,8.61,30.17.37,1.34.73,2.67,1.08,4l1-3.74c2.79-10.47,5.68-20.92,8.46-31.4a5.34,5.34,0,0,1,.31-1,.25.25,0,0,1,0-.07,3.8,3.8,0,0,1,3.25-2.61c1.59-.05,3.18-.12,4.78-.12h1.2l2.66,0a2.07,2.07,0,0,1,1.77,3"/><path class="cls-3" d="M235.21,186.28c-3.16-5.56-7-12.13-10.13-17.3a14.32,14.32,0,0,0,9.44-11.28c.8-6.37.71-13.8-4.16-18.63s-12.16-5.38-18.64-5.11c-5,0-10-.09-14.93,0-1.82-.22-3.15,1.63-3.09,3.31,0,15.46,0,30.91,0,46.37.06,1.26-.09,2.74.93,3.7,1.39,1.38,3.55.79,5.32,1,2.06-.21,4.51.55,6.26-.87,1.26-.87.92-2.51,1-3.83,0-4.16,0-8.32-.06-12.47,1.7.06,3.39.07,5.1,0,2.31,4.72,4.89,9.47,7.38,14.11a5.13,5.13,0,0,0,4,3H234a1.38,1.38,0,0,0,1.2-2.07m-13.75-31.46a6.06,6.06,0,0,1-6.06,6.06h-8.27V144.51h8.27a6,6,0,0,1,6.06,6.05Z"/><path class="cls-3" d="M49.05,185.4q-8.53-24.1-17.12-48.21a4.4,4.4,0,0,0-4.18-3.27c-2.32,0-4.63-.06-6.94,0-1.95.1-3.36,1.82-3.86,3.59Q8.57,161.39.22,185.29a2.06,2.06,0,0,0,1.77,3c2.75.07,5.52,0,8.29,0a3.8,3.8,0,0,0,3.62-2.77c.91-2.79,1.65-5.61,2.46-8.43,5.3.06,10.61,0,15.92.06.93,1.4,1,3.27,1.69,4.83.76,2.3,1.09,5.59,3.94,6.21,3,.26,6.1.06,9.14.11a2.06,2.06,0,0,0,2-2.91M19.26,167.09c1.65-5.79,3.32-11.57,5-17.35,1.76,5.78,3.44,11.61,5.26,17.38-3.42-.06-6.82,0-10.23,0"/><path class="cls-3" d="M188.93,185.4q-8.52-24.1-17.12-48.21a4.4,4.4,0,0,0-4.18-3.27c-2.31,0-4.63-.06-6.94,0-1.95.1-3.36,1.82-3.86,3.59q-8.37,23.85-16.73,47.75a2.06,2.06,0,0,0,1.77,3c2.76.07,5.52,0,8.29,0a3.8,3.8,0,0,0,3.62-2.77c.91-2.79,1.66-5.61,2.47-8.43,5.3.06,10.61,0,15.91.06.93,1.4,1,3.27,1.69,4.83.76,2.3,1.1,5.59,3.94,6.21,3,.26,6.1.06,9.14.11a2.06,2.06,0,0,0,2-2.91m-29.79-18.31c1.65-5.79,3.32-11.57,5-17.35,1.76,5.78,3.45,11.61,5.26,17.38-3.41-.06-6.82,0-10.23,0"/><path class="cls-3" d="M242.35,137.25a3,3,0,0,1,2.9-3.31c2.62,0,5.24-.05,7.85,0a2.89,2.89,0,0,1,2.74,2.85c.12,6.28-.13,12.56.13,18.82a9.89,9.89,0,0,0,1.41-1.68c3.8-5.7,7.66-11.37,11.47-17a6,6,0,0,1,4.92-2.94c3.21,0,6.44-.09,9.65,0,1.26.06,1.44,1.75.69,2.52-6.52,8.38-13.09,16.72-19.61,25.09,6.8,8.13,13.67,16.22,20.46,24.36a1.41,1.41,0,0,1-1.07,2.41h-9.72a6.37,6.37,0,0,1-5.05-2.25c-4.46-5.71-8.54-11.73-13.14-17.32-.29,5.59,0,11.19-.15,16.79a3.14,3.14,0,0,1-2.88,2.78h-6.34c-1.13,0-2.43.09-3.29-.79a3.46,3.46,0,0,1-1-2.89q0-23.7,0-47.42"/></g></g></svg>