<svg id="Слой_1" data-name="Слой 1" xmlns="http://www.w3.org/2000/svg" viewBox="0 0 300 150"><defs><style>.cls-1{fill:#363630;}.cls-2{fill:#a6d9f0;fill-rule:evenodd;}</style></defs><title>Монтажная область 1 копия 2</title><path class="cls-1" d="M150.48,85.29a9.77,9.77,0,0,1-2.92-.42,13.33,13.33,0,0,1-2.25-.89V81h.13c.23.17.49.37.79.58a7.18,7.18,0,0,0,1.21.67,9,9,0,0,0,1.47.54,5.76,5.76,0,0,0,1.67.24,6.45,6.45,0,0,0,1.33-.15,2.8,2.8,0,0,0,1.06-.37,2.12,2.12,0,0,0,.71-.68,2.21,2.21,0,0,0,.21-1.09,1.81,1.81,0,0,0-.51-1.4,4.16,4.16,0,0,0-1.8-.8l-1.31-.29c-.54-.11-1-.23-1.49-.36a4.69,4.69,0,0,1-2.59-1.59,4.55,4.55,0,0,1,.78-6A6.38,6.38,0,0,1,151.19,69a10.65,10.65,0,0,1,2.61.32,8.9,8.9,0,0,1,2.2.81v2.8h-.14a8.06,8.06,0,0,0-2.24-1.25,7,7,0,0,0-2.49-.46,4.12,4.12,0,0,0-2.18.54,1.8,1.8,0,0,0-.89,1.64,1.87,1.87,0,0,0,.52,1.46,4.21,4.21,0,0,0,1.7.79c.39.1.83.2,1.3.3s1,.21,1.52.34a5,5,0,0,1,2.6,1.43,4,4,0,0,1,.87,2.73,4.61,4.61,0,0,1-.4,1.91A4.24,4.24,0,0,1,155,83.87a6.27,6.27,0,0,1-1.89,1.06,8.25,8.25,0,0,1-2.64.36Zm20.76-.38h-2.62V76.05a17.84,17.84,0,0,0-.1-2,4.22,4.22,0,0,0-.4-1.49,2.07,2.07,0,0,0-.89-.87,3.54,3.54,0,0,0-1.56-.28,4.63,4.63,0,0,0-2,.52,10.38,10.38,0,0,0-2,1.36V84.91H159V63.23h2.62v7.85a10.21,10.21,0,0,1,2.31-1.61,5.45,5.45,0,0,1,2.41-.55,4.45,4.45,0,0,1,3.59,1.51,6.53,6.53,0,0,1,1.3,4.38v10.1Zm16.49-7.77a8.88,8.88,0,0,1-1.89,6.07,6.45,6.45,0,0,1-5.05,2.14,6.34,6.34,0,0,1-5.11-2.21,9,9,0,0,1-1.86-6,8.81,8.81,0,0,1,1.92-6.06,7,7,0,0,1,10.1,0,8.9,8.9,0,0,1,1.89,6.07Zm-2.7,0a7.42,7.42,0,0,0-1.11-4.49,3.66,3.66,0,0,0-3.13-1.47,3.73,3.73,0,0,0-3.16,1.47,7.42,7.42,0,0,0-1.11,4.49,7.4,7.4,0,0,0,1.11,4.43,4,4,0,0,0,6.29,0A7.42,7.42,0,0,0,185,77.14Zm15.2,3.55V72.15a8.58,8.58,0,0,0-1.8-.67,6.67,6.67,0,0,0-1.65-.21,3.76,3.76,0,0,0-3.14,1.47,6.66,6.66,0,0,0-1.14,4.19,7.33,7.33,0,0,0,.87,3.94,3.1,3.1,0,0,0,2.82,1.35,6.19,6.19,0,0,0,2.1-.4,6.59,6.59,0,0,0,1.94-1.13Zm-8.8,6.72.78.3c.34.12.73.24,1.17.35s.93.22,1.34.3a7.86,7.86,0,0,0,1.33.11,5.9,5.9,0,0,0,2.06-.32,3.07,3.07,0,0,0,1.32-.9,3.16,3.16,0,0,0,.62-1.32,7.39,7.39,0,0,0,.18-1.72V82.85a8,8,0,0,1-2.07,1.36,6.52,6.52,0,0,1-2.55.44,5.14,5.14,0,0,1-4.24-2A9,9,0,0,1,189.8,77a10.08,10.08,0,0,1,.54-3.43A7.76,7.76,0,0,1,191.81,71a6.06,6.06,0,0,1,4.55-2.08,6.89,6.89,0,0,1,2.1.28,8.25,8.25,0,0,1,1.77.82l.16-.67h2.47V83.14q0,4-1.73,5.81a6.91,6.91,0,0,1-5.29,1.86,17,17,0,0,1-2.33-.18,17.29,17.29,0,0,1-2.22-.49V87.41ZM219,77.14a8.88,8.88,0,0,1-1.89,6.07,6.45,6.45,0,0,1-5.05,2.14A6.34,6.34,0,0,1,207,83.14a9,9,0,0,1-1.86-6A8.81,8.81,0,0,1,207,71.08a7,7,0,0,1,10.1,0A8.9,8.9,0,0,1,219,77.14Zm-2.7,0a7.42,7.42,0,0,0-1.11-4.49,3.66,3.66,0,0,0-3.13-1.47,3.73,3.73,0,0,0-3.16,1.47,7.42,7.42,0,0,0-1.11,4.49,7.4,7.4,0,0,0,1.11,4.43,4,4,0,0,0,6.29,0,7.42,7.42,0,0,0,1.11-4.46Z"/><path class="cls-2" d="M107.49,77.8a7,7,0,0,0-2.82-2.68A8.09,8.09,0,0,0,96.34,77c-1.34,1.53-1.51,5-.81,6.42a8,8,0,0,0,3.67,3.78c2.14.8,7.44.34,8.7-2.23a6.52,6.52,0,0,0,.43-5.5c.91-.73,1.55-1.53,2.42-2.2a8.3,8.3,0,0,1,.71,1.92c.27,1.24,1.94,2.42,2.23.9a6.18,6.18,0,0,0-.92-3.83,15.15,15.15,0,0,1,6-.42l.31,0a8,8,0,0,0-1.17,5.21c.42,4,2.1,6.12,4.23,7.21-3.06.25-6.84.73-6.84,1.73-.1.67,12.14-.62,16.55-.75,2.91-.09,6.79.48,9.58.59,2.35-.32-.22-1.32-1.29-1.45-2.58-.3-5.18-.52-7.83-.58a8.47,8.47,0,0,0,2.12-2.53c.43.3.8.46,1,.36.86-.41.54-1.28-.21-2.2a11.16,11.16,0,0,0,.54-4.26c-.32-4.13-2.69-6.46-5.61-7.3a8.8,8.8,0,0,0,1-4.36c0-1.78,1.1-2.58,1.1-4.35,0-1.15-3.8-3.39-5.31-3.82-1.72-.5-4.87.07-2.5.91,1,.34,4.93,1.49,5.23,2.18,1.12,2.57-3.67,2-5.26,2.54-1.79.59-2.42,1.68-.54,1.68s5.31-1.35,5.56,1a5.64,5.64,0,0,1-1.19,3.85A10.62,10.62,0,0,0,120.65,74c-.51-.09-1-.2-1.58-.27a20.21,20.21,0,0,0-5,.26,9.71,9.71,0,0,0-2.3.52c-.95-1.48-2-2.89-2.58-4,0-.07-.07-.13-.1-.2a5,5,0,0,0,1.42.23c3.46,0,3.17-2,1.29-2.33a18.1,18.1,0,0,0-1.86-.13c-1.54,0-3.07.07-4.32-.84-2.3-1.74-5.78-3.9-8.63-2-1.19.77-.42,2.86.62,3.35,2.58,1.25,5.78.49,8.71.9l.24,0a5.49,5.49,0,0,1,.75,1.49,26,26,0,0,0,2.56,4.67c-.67.54-1.37,1.24-2.35,2.14ZM84.65,86.65a14.49,14.49,0,0,0,4.25-1.19c.78-.33,4.41-2.24,4.41-.57s-7.79,3.92-9.4,3.92c-4.39,0-2.52-1.94.74-2.16Zm5.59-9c.87.35.36,1.6-.28,1.74a6.57,6.57,0,0,1-3.2-.21c-1.11-.15-6.33-.42-5.71-2.3.28-.83,2-.33,2.86-.07,1.15.37,5.29.42,6.33.84ZM84.3,68c1.12.72,3,.76,4.25,1.24.78.34,3.76,1.5,3.47,2.47-.24.76-1.92-.24-2.27-.46-1.47-.94-3.85-.32-5.14-1.15a3.18,3.18,0,0,1-1.22-1.19c-.16-.27.25-1.17.91-.91Zm21.78,10.87c-1,.5-1.75.59-2.11,1.39-.53,1.22,2.18.53,2.69.3l.11,0a7.08,7.08,0,0,1-.47,3,2.06,2.06,0,0,1-.87,1.1,5.65,5.65,0,0,0-.87-1.07c-.89-.89-1.78.45-1.44,1.22,0,0,.11.24.22.46a9.77,9.77,0,0,1-3.38-.37c1.18-.6,2.32-1.44,2.49-1.51s1.09-1.1.85-1.8a24.32,24.32,0,0,0-2.5-4.43l-.08-.12a4.64,4.64,0,0,1,3-.23,10.24,10.24,0,0,1,2.35,2.06Zm-5.38,1.76a18.87,18.87,0,0,1-1.77-2.43c-1.52,1.42-2.25,3.59-1.09,5.44,1.33-.82,4.44-.77,2.86-3ZM98.54,66.74a28.79,28.79,0,0,1,3.28.93c.85,1.08-2.37.58-2.86.3-.67-.39-3.29-2.24-.42-1.23Zm30.3,7,.37-.44a8.39,8.39,0,0,1,1.42.46A12.22,12.22,0,0,1,129,76.52c-.83.84-2.15,1.07-3.14,1.77-.59-.47-1.34-.89-1.59-1.41a10.66,10.66,0,0,1-.88-2.94,6.48,6.48,0,0,1,3.14-.93H127c-.33,1,.74,2,1.84.73Zm-1.39,7.76c1.56,1.43,1.07,3.49,1.07,5.16h.25a4.41,4.41,0,0,0,3.89-2.82c-.8-.74-1.51-1.45-1.75-1.6a9.46,9.46,0,0,0-4.7-1.77h-.08a8.78,8.78,0,0,1-1.07,2.62c-1,1.4-3.75,1.74-4.42-.07-.53-1.42,1.19-.38,2-.77a5.78,5.78,0,0,0,2.46-2.42,7.51,7.51,0,0,1-1.53-1.33A10.19,10.19,0,0,1,122,74.92a7.4,7.4,0,0,0-2.49,3.59c-.55,2.28.92,5.42,1.62,6.12,1.72,1.72,3.08,2,5.35,2,.2-1.44.5-3.6-.23-4.33-.38-.38.42-1.54,1.19-.83Zm.34-2.42a11.27,11.27,0,0,1,4,1.42,19.4,19.4,0,0,1,1.56,1.18,10.25,10.25,0,0,0-.16-5.27A4,4,0,0,0,132,74.64a8.36,8.36,0,0,1-4.23,4.45Z"/></svg>