<svg id="Слой_1" data-name="Слой 1" xmlns="http://www.w3.org/2000/svg" viewBox="0 0 300 150"><defs><style>.cls-1{fill:#2a2522;}.cls-1,.cls-2,.cls-3{fill-rule:evenodd;}.cls-2{fill:#757576;}.cls-3{fill:#c91518;}</style></defs><title>Монтажная область 1 копия 3</title><path class="cls-1" d="M157.63,80.82h-3.09V73.66q0-3.6-2-5.2a5.77,5.77,0,0,0-3.76-1.16,5.88,5.88,0,0,0-4.11,1.5A5.17,5.17,0,0,0,143,72.86a5,5,0,0,0,2,4.26,6.21,6.21,0,0,0,3.87,1.23,6,6,0,0,0,5.73-5.19l-.06,5.32c-1,1.54-3.36,2.77-6.13,2.67a8.71,8.71,0,0,1-6.08-2.23,7.54,7.54,0,0,1-2.46-5.86,8,8,0,0,1,2.61-6.18,9.2,9.2,0,0,1,6.42-2.38,8.6,8.6,0,0,1,6,2.1q2.75,2.46,2.75,7.16v7.06Z"/><path class="cls-1" d="M168.73,67.3h-.42a4.23,4.23,0,0,0-3.52,1.43,6.94,6.94,0,0,0-1.27,4.49v7.6h-3.09v-16h2.95v1.83a4.88,4.88,0,0,1,2.4-1.83,7.48,7.48,0,0,1,2.42-.33h.53v2.8Z"/><path class="cls-1" d="M179.2,80.82h-3.8a6.31,6.31,0,0,1-3.16-.67q-2.18-1.26-2.18-4.7V60.83h3.09v4h6v2.8h-6v7.59a4.65,4.65,0,0,0,.25,2c.32.51,1.18.77,2.56.77h3.24v2.8Z"/><path class="cls-1" d="M184.5,80.82h-3.08v-16h3.08v16Zm.32-19.55a1.73,1.73,0,0,1-.38,1.13A1.85,1.85,0,0,1,183,63a1.76,1.76,0,0,1-1.41-.55,1.88,1.88,0,0,1-.45-1.22,1.7,1.7,0,0,1,.38-1.13,1.83,1.83,0,0,1,1.48-.63,1.7,1.7,0,0,1,1.4.55,1.81,1.81,0,0,1,.46,1.21Z"/><path class="cls-1" d="M198.49,80.82h-2.22a9.29,9.29,0,0,1-6.85-2.53,7.42,7.42,0,0,1-2.28-5.46,7.8,7.8,0,0,1,.77-3.43,7.47,7.47,0,0,1,2.81-3.1,8.68,8.68,0,0,1,2.78-1.15,13.58,13.58,0,0,1,2.91-.32h2.08v2.8h-2.21a6.06,6.06,0,0,0-4.68,1.76,5,5,0,0,0-1.29,3.44,4.8,4.8,0,0,0,1.47,3.59,6.31,6.31,0,0,0,4.6,1.6h2.11v2.8Z"/><path class="cls-1" d="M214,76.35a5.32,5.32,0,0,1-.19,1.4,3.93,3.93,0,0,1-.58,1.2,4.42,4.42,0,0,1-2.36,1.6,9.06,9.06,0,0,1-2.43.27h-8.26V78h8.09a7,7,0,0,0,1.54-.1,1.19,1.19,0,0,0,1-1.23,1.47,1.47,0,0,0-.56-1.2,4.59,4.59,0,0,0-1.33-.63c-1.55-.45-3.09-.9-4.61-1.37a7,7,0,0,1-3.27-1.95,3.79,3.79,0,0,1-.88-2.38,7,7,0,0,1,.11-1.2,2.87,2.87,0,0,1,.63-1.26,4.65,4.65,0,0,1,2.53-1.6,10.94,10.94,0,0,1,2.71-.27h7.06v2.8h-7.94a2.62,2.62,0,0,0-1.4.32,1,1,0,0,0-.53.91A1.42,1.42,0,0,0,204,70a4.21,4.21,0,0,0,1.23.56c1.5.45,3,.88,4.53,1.3a7.35,7.35,0,0,1,3.38,2,3.9,3.9,0,0,1,.91,2.49Z"/><path class="cls-2" d="M139.89,82.06h1.2v1.08h-1.2V82.06Zm0,8.31V84.58h1.14v5.79h-1.14Z"/><path class="cls-2" d="M142.28,90.37V84.58h1.14v.48l0,0a1.83,1.83,0,0,1,1.35-.58,1.52,1.52,0,0,1,1.09.36,1.34,1.34,0,0,1,.38,1v4.52h-1.11V86.22a1.08,1.08,0,0,0-.2-.7.73.73,0,0,0-.6-.25.82.82,0,0,0-.7.31,1.55,1.55,0,0,0-.23,1h0v3.84h-1.14Z"/><path class="cls-2" d="M150.09,90.41a3.69,3.69,0,0,1-.72.09,1.53,1.53,0,0,1-1-.28,1.26,1.26,0,0,1-.3-1v-3.9h-.8v-.79h.8v-1l1.14-.45v1.5h.91v.79h-.91V89.1a.5.5,0,0,0,.2.45,1.35,1.35,0,0,0,.71.13h0v.73Z"/><path class="cls-2" d="M154,87.05h0v-.46a2.09,2.09,0,0,0-.19-1,.75.75,0,0,0-.68-.28.73.73,0,0,0-.66.31,1.94,1.94,0,0,0-.2,1v.46Zm-.87,3.45a2,2,0,0,1-1.55-.51,2.58,2.58,0,0,1-.45-1.73V86.57a2.25,2.25,0,0,1,.49-1.6,2.49,2.49,0,0,1,3,0,2.3,2.3,0,0,1,.49,1.61v1.28h-2.87v.43a2.49,2.49,0,0,0,.17,1.13.75.75,0,0,0,.69.27.73.73,0,0,0,.85-.88v-.17h1.14v.17a1.47,1.47,0,0,1-.45,1.28,2.32,2.32,0,0,1-1.54.42Z"/><path class="cls-2" d="M156.2,90.37V84.58h1.14v.69l.15-.2a1.68,1.68,0,0,1,1.27-.62v1.08a1.39,1.39,0,0,0-1.11.37,2,2,0,0,0-.31,1.28h0v3.19H156.2Z"/><path class="cls-2" d="M159.69,90.37V84.58h1.14v.48l0,0a1.82,1.82,0,0,1,1.35-.58,1.54,1.54,0,0,1,1.09.36,1.37,1.37,0,0,1,.38,1v4.52h-1.11V86.22a1,1,0,0,0-.21-.7.7.7,0,0,0-.59-.25.84.84,0,0,0-.71.31,1.63,1.63,0,0,0-.22,1h0v3.84h-1.14Z"/><path class="cls-2" d="M167.61,87.05h0v-.46a2,2,0,0,0-.19-1,.74.74,0,0,0-.68-.28.7.7,0,0,0-.65.31,1.84,1.84,0,0,0-.2,1v.46Zm-.87,3.45a2,2,0,0,1-1.55-.51,2.58,2.58,0,0,1-.45-1.73V86.57a2.3,2.3,0,0,1,.49-1.6,2.5,2.5,0,0,1,3,0,2.3,2.3,0,0,1,.48,1.61v1.28h-2.86v.43a2.53,2.53,0,0,0,.16,1.13.76.76,0,0,0,.69.27.73.73,0,0,0,.85-.88v-.17h1.14v.17a1.49,1.49,0,0,1-.44,1.28,2.35,2.35,0,0,1-1.55.42Z"/><path class="cls-2" d="M172.44,90.41a3.69,3.69,0,0,1-.72.09,1.53,1.53,0,0,1-1-.28,1.26,1.26,0,0,1-.3-1v-3.9h-.8v-.79h.8v-1l1.14-.45v1.5h.91v.79h-.91V89.1a.5.5,0,0,0,.2.45,1.35,1.35,0,0,0,.71.13h0v.73Z"/><path class="cls-2" d="M178.8,86.26v-.17a.9.9,0,0,0-.13-.62.6.6,0,0,0-.51-.2.75.75,0,0,0-.49.14.55.55,0,0,0-.16.44.77.77,0,0,0,.16.48,5,5,0,0,0,.76.58,6.59,6.59,0,0,1,1.27,1,1.29,1.29,0,0,1,.32.87,1.59,1.59,0,0,1-.49,1.26,2,2,0,0,1-1.41.45,2.15,2.15,0,0,1-1.45-.43,1.53,1.53,0,0,1-.45-1.2V88.6h1.12v.17a1,1,0,0,0,.17.68.74.74,0,0,0,.61.23.9.9,0,0,0,.59-.17.74.74,0,0,0,.19-.54.88.88,0,0,0-.22-.56,5.58,5.58,0,0,0-.87-.68,5.16,5.16,0,0,1-1.13-.92,1.5,1.5,0,0,1,.17-2,2.5,2.5,0,0,1,2.68,0,1.46,1.46,0,0,1,.4,1.14v.28Z"/><path class="cls-2" d="M183.07,89.68a.69.69,0,0,0,.64-.31,1.92,1.92,0,0,0,.2-1V86.68a2.2,2.2,0,0,0-.2-1.07.8.8,0,0,0-1.29,0,2.1,2.1,0,0,0-.19,1v1.68a2.2,2.2,0,0,0,.18,1.07.7.7,0,0,0,.66.29Zm0,.82a1.92,1.92,0,0,1-1.51-.54,2.56,2.56,0,0,1-.47-1.7V86.57A2.25,2.25,0,0,1,181.6,85a1.93,1.93,0,0,1,1.47-.55,2,2,0,0,1,1.5.51,2.3,2.3,0,0,1,.48,1.61v1.69a2.55,2.55,0,0,1-.47,1.71,1.91,1.91,0,0,1-1.51.53Z"/><polygon class="cls-2" points="186.28 90.37 186.28 82.04 186.85 82.04 187.42 82.04 187.42 90.37 186.86 90.37 186.28 90.37 186.28 90.37"/><path class="cls-2" d="M189.75,84.58v4.29a1,1,0,0,0,.17.61.66.66,0,0,0,.51.2.9.9,0,0,0,.76-.31,1.52,1.52,0,0,0,.25-1h0V84.58h1.14v5.79h-1.14v-.48h0a1.77,1.77,0,0,1-1.33.61,1.58,1.58,0,0,1-1.11-.37,1.38,1.38,0,0,1-.38-1V84.58h1.14Z"/><path class="cls-2" d="M196.44,90.41a3.69,3.69,0,0,1-.72.09,1.53,1.53,0,0,1-1-.28,1.26,1.26,0,0,1-.3-1v-3.9h-.8v-.79h.8v-1l1.14-.45v1.5h.91v.79h-.91V89.1a.5.5,0,0,0,.2.45,1.35,1.35,0,0,0,.71.13h0v.73Z"/><path class="cls-2" d="M197.53,82.06h1.2v1.08h-1.2V82.06Zm0,8.31V84.58h1.14v5.79h-1.14Z"/><path class="cls-2" d="M201.9,89.68a.69.69,0,0,0,.64-.31,1.92,1.92,0,0,0,.2-1V86.68a2.2,2.2,0,0,0-.2-1.07.8.8,0,0,0-1.29,0,2.1,2.1,0,0,0-.19,1v1.68a2.2,2.2,0,0,0,.18,1.07.7.7,0,0,0,.66.29Zm0,.82a1.92,1.92,0,0,1-1.51-.54,2.5,2.5,0,0,1-.47-1.7V86.57a2.25,2.25,0,0,1,.51-1.57,1.93,1.93,0,0,1,1.47-.55,2,2,0,0,1,1.5.51,2.3,2.3,0,0,1,.48,1.61v1.69a2.55,2.55,0,0,1-.47,1.71,1.92,1.92,0,0,1-1.51.53Z"/><path class="cls-2" d="M205.1,90.37V84.58h1.14v.48l0,0a1.85,1.85,0,0,1,1.36-.58,1.5,1.5,0,0,1,1.08.36,1.34,1.34,0,0,1,.39,1v4.52H208V86.22a1.08,1.08,0,0,0-.2-.7.72.72,0,0,0-.6-.25.82.82,0,0,0-.7.31,1.55,1.55,0,0,0-.23,1h0v3.84H205.1Z"/><path class="cls-2" d="M212.69,86.26v-.17a.89.89,0,0,0-.14-.62.58.58,0,0,0-.51-.2.74.74,0,0,0-.48.14.55.55,0,0,0-.16.44.71.71,0,0,0,.16.48,5.35,5.35,0,0,0,.75.58,6.74,6.74,0,0,1,1.28,1,1.34,1.34,0,0,1,.32.87,1.59,1.59,0,0,1-.5,1.26,2,2,0,0,1-1.4.45,2.13,2.13,0,0,1-1.45-.43,1.47,1.47,0,0,1-.45-1.2V88.6h1.12v.17a.91.91,0,0,0,.17.68.73.73,0,0,0,.61.23.87.87,0,0,0,.58-.17.7.7,0,0,0,.2-.54.84.84,0,0,0-.23-.56,4.93,4.93,0,0,0-.86-.68,5,5,0,0,1-1.14-.92,1.35,1.35,0,0,1-.28-.86,1.36,1.36,0,0,1,.46-1.11,1.94,1.94,0,0,1,1.3-.39,2,2,0,0,1,1.37.39,1.43,1.43,0,0,1,.4,1.14v.28Z"/><path class="cls-3" d="M106.81,66.23l9.84,16.51a2.65,2.65,0,0,0,3.52.88l.65-.36a2.37,2.37,0,0,0,.93-3.33l-9.84-16.51a2.64,2.64,0,0,0-3.51-.88l-.65.36a2.37,2.37,0,0,0-.94,3.33Z"/><path class="cls-3" d="M109.22,97a24,24,0,0,1-11.06-2.66l-.79-.44a2.36,2.36,0,0,1-.72-3.33L97,90a2.3,2.3,0,0,1,3.1-.77l.32.19.42.24a18.27,18.27,0,0,0,8.4,2c9.74,0,17.64-7.49,17.64-16.71S119,58.3,109.22,58.3,91.59,65.78,91.59,75a15.93,15.93,0,0,0,1.22,6.13l.15.29,6.84-7.08.06-.12A2.61,2.61,0,0,1,102,73.13l6.2.07a2.52,2.52,0,0,1,2.58,2.43v.72a2.51,2.51,0,0,1-2.56,2.45l-4.4-.06-9.25,9a3,3,0,0,1-4.17,0A21.89,21.89,0,0,1,89.08,86,21,21,0,0,1,86,75c0-12.14,10.41-22,23.22-22s23.23,9.86,23.23,22S122,97,109.22,97Z"/></svg>