<svg id="Слой_1" data-name="Слой 1" xmlns="http://www.w3.org/2000/svg" viewBox="0 0 300 150"><defs><style>.cls-1{fill:#00c691;}</style></defs><title>Монтажная область 1 копия 5</title><path class="cls-1" d="M134.08,67.2a2.53,2.53,0,1,1-2.53,2.52,2.52,2.52,0,0,1,2.53-2.52"/><path d="M72,66.11a15.92,15.92,0,0,1,5,.74v3.62a15.46,15.46,0,0,0-4.11-.71c-3.64,0-4.58,1-4.58,5.24,0,4.5.94,5.24,4.58,5.24a15.46,15.46,0,0,0,4.11-.71v3.62a15.92,15.92,0,0,1-5,.74c-5.34,0-8-1.83-8-8.89s2.71-8.89,8-8.89"/><path d="M87,77.6h-3.1v6H79.8V66.42h9.45c3.4,0,5.19,2,5.19,5.61,0,2.74-1.13,4.48-3.27,5.07l4,6.48H90.58Zm-3.1-3.5h4.41c1.35,0,2-.56,2-2s-.62-2.14-2-2.14H83.86Z"/><path d="M113.32,74.85c0,7.07-2.78,9.11-8.1,9.11s-8.09-2-8.09-9.11S99.88,66,105.22,66s8.1,1.85,8.1,8.81m-4.23.05c0-4.43-.84-5.22-3.87-5.22s-3.86.79-3.86,5.22.84,5.44,3.86,5.44,3.87-.93,3.87-5.44"/><path d="M122.77,80.23c2.34,0,3-.57,3-1.6s-.57-1.3-2.39-1.57l-3-.47c-3.37-.52-4.73-2-4.73-5.25,0-3.79,2.37-5.21,7.66-5.21a19.82,19.82,0,0,1,5.68.74v3.61a25.92,25.92,0,0,0-6.3-.71c-2.21,0-2.83.54-2.83,1.53s.54,1.3,2.12,1.52l2.88.45c3.74.56,5.17,2.09,5.17,5.34,0,3.76-2.41,5.26-7.9,5.26a22.82,22.82,0,0,1-6.11-.74V79.52a30.12,30.12,0,0,0,6.82.71"/><path class="cls-1" d="M154.61,74.82c0,6.79-2.78,8.76-8.09,8.76h-7V66.42h7c5.31,0,8.09,1.75,8.09,8.4m-4.23.05c0-4.09-.84-4.8-3.86-4.8h-3v9.86h3c3,0,3.86-.86,3.86-5.06"/><rect class="cls-1" x="157.81" y="66.42" width="4.06" height="17.16"/><path class="cls-1" d="M179.72,73.18v10a25.15,25.15,0,0,1-6.28.74c-5.59,0-8.37-1.83-8.37-8.89s2.91-8.89,8.52-8.89a15.93,15.93,0,0,1,5.58.84v3.62a16.15,16.15,0,0,0-4.75-.81c-4.11,0-5.12,1-5.12,5.24,0,4.5,1,5.24,5,5.24.49,0,1,0,1.5-.07V76.62h-3.52V73.18Z"/><rect class="cls-1" x="183.63" y="66.42" width="4.06" height="17.16"/><polygon class="cls-1" points="195.32 70.11 189.95 70.11 189.95 66.42 204.75 66.42 204.75 70.11 199.38 70.11 199.38 83.58 195.32 83.58 195.32 70.11"/><path class="cls-1" d="M215.94,79.79h-7.26l-1.45,3.79H202.9l7-17.16h4.94l7,17.16h-4.4Zm-1.3-3.42-2.32-6-2.31,6Z"/><polygon class="cls-1" points="227.29 79.89 236 79.89 236 83.58 223.23 83.58 223.23 66.42 227.29 66.42 227.29 79.89"/></svg>