<svg xmlns="http://www.w3.org/2000/svg" viewBox="0 0 231.66 192.53"><defs><style>.cls-1{fill:#34ca9d;}.cls-2{fill:#2c5871;}.cls-3{fill:#fff;}.cls-4{fill:#cceef5;}.cls-5{fill:#f1fafc;}.cls-6{fill:none;}.cls-7{fill:#fcbe0f;}</style></defs><title>eye</title><g id="Слой_2" data-name="Слой 2"><g id="Layer_4" data-name="Layer 4"><path class="cls-1" d="M102.77,80.9A36.36,36.36,0,0,0,90.26,53.41,39.64,39.64,0,0,0,82.87,65a23,23,0,0,1,.43,31.32A39.79,39.79,0,0,0,91,107.72,36.45,36.45,0,0,0,102.77,80.9Z"/><path class="cls-2" d="M82.15,66.88a39.83,39.83,0,0,0,.39,27.62,21.15,21.15,0,0,0-.39-27.62Z"/><path class="cls-3" d="M140.54,81.58A86.29,86.29,0,0,0,100.39,45.4a39.92,39.92,0,0,0-8.87,6.69l0,0A38.24,38.24,0,0,1,92.28,109a39.49,39.49,0,0,0,11,7.43A86.6,86.6,0,0,0,140.54,81.58Z"/><path class="cls-4" d="M157.62,42.28a53.62,53.62,0,0,0-76-.07,56.22,56.22,0,0,0-4.89,5.62l-.61.81-.28.41c-.55.77-1.09,1.56-1.61,2.38h0a53.33,53.33,0,0,0-5.65,11.89.08.08,0,0,1,0,0,53.85,53.85,0,0,0-1.93,7.8l-.09.53c-.07.45-.13.9-.19,1.36s-.1.74-.14,1.12l-.12,1.13c0,.49-.08,1-.11,1.47,0,.3,0,.59,0,.89,0,.8-.06,1.61-.06,2.41s0,1.79.06,2.67c0,.26,0,.51,0,.77,0,.63.08,1.25.14,1.88,0,.29.07.58.1.87.07.59.14,1.17.22,1.74l.15.92c.09.55.19,1.11.3,1.66.06.32.13.64.2,1,.11.51.23,1,.36,1.54.08.35.18.7.27,1s.26,1,.4,1.41l.36,1.15c.14.42.28.84.43,1.26s.29.82.45,1.23.26.68.4,1c.29.73.6,1.45.93,2.17L71,103a51.07,51.07,0,0,0,3,5.53c0,.09.11.18.17.27.52.83,1.07,1.64,1.64,2.44.07.1.13.2.21.3.33.46.67.91,1,1.36l.3.38c.36.46.72.91,1.09,1.36l0,0c.75.89,1.53,1.76,2.33,2.6a53.55,53.55,0,0,0,38.7,16.63l.08.88v-.88a53.27,53.27,0,0,0,32.74-11.16c.77-.6,1.51-1.2,2.23-1.82.2-.17.41-.34.6-.52s.52-.46.78-.7c.53-.49,1.06-1,1.58-1.5l.05-.06c.51-.51,1-1,1.49-1.56l.69-.76.43-.5c.63-.72,1.24-1.47,1.85-2.24h0a53.61,53.61,0,0,0-4.4-70.76ZM149,109.49a41.52,41.52,0,0,1-45.59,8.87l-.27.14-.15-.32A41.66,41.66,0,0,1,81.63,96.94l-.69-.72.25-.26a41.55,41.55,0,0,1,38.42-57.3h.06A41.49,41.49,0,0,1,149,109.49Z"/><path class="cls-5" d="M119.66,40.43l0-.89v.89a39.41,39.41,0,0,0-17.22,3.93,88.08,88.08,0,0,1,40,36.79.9.9,0,0,1,0,.87,88.49,88.49,0,0,1-36.84,35.29,39.73,39.73,0,1,0,14.16-76.88Z"/><path class="cls-3" d="M1.86,82.25A72.87,72.87,0,0,1,65,45.47a72,72,0,0,1,10.68.81c-.12.15-.23.32-.35.47l-.63.84-.34.49c-.44.61-.87,1.23-1.28,1.86a32.76,32.76,0,1,0,1.76,63c.25.35.5.68.76,1l.37.47c.35.45.71.89,1.07,1.32l.28.33c.48.56,1,1.12,1.46,1.66A72.62,72.62,0,0,1,1.86,82.25Z"/><path class="cls-1" d="M72.51,109.43l.18.29c.36.56.71,1.12,1.08,1.66A31,31,0,1,1,65,50.68a31.29,31.29,0,0,1,7.08.84,55.18,55.18,0,0,0-4.94,10.56A18.26,18.26,0,0,0,65,61.94a19.66,19.66,0,0,0-5.55.81,9.09,9.09,0,0,0-12.9,12,19.51,19.51,0,0,0-1.26,6.89A19.74,19.74,0,0,0,65,101.39a19.3,19.3,0,0,0,3.23-.29c.28.68.57,1.34.87,2,.1.21.18.42.28.62A54.29,54.29,0,0,0,72.51,109.43Z"/><path class="cls-4" d="M154.15,123.53l1.14-.94,1.29-1.11.58-.53c.57-.53,1.13-1,1.66-1.59l0,0,0,0a55.35,55.35,0,0,0,3.91-4.36l6.18,6.38c.18.18.33.36.48.54a6,6,0,0,1,1,1.87.56.56,0,0,1,0,.12,6.74,6.74,0,0,1,.2.89l0,.21a6.33,6.33,0,0,1,0,.87c0,.07,0,.16,0,.24a6.21,6.21,0,0,1-.12.85l-.06.22a5.63,5.63,0,0,1-.28.85s-.05.1-.07.16a5.73,5.73,0,0,1-.46.84l-.06.09a6.4,6.4,0,0,1-.67.81l-.06.06a5.74,5.74,0,0,1-.45.41,6,6,0,0,1-3.83,1.36,6.24,6.24,0,0,1-1-.08h0a6,6,0,0,1-2.67-1.14h0a6.53,6.53,0,0,1-.63-.55Z"/><path class="cls-3" d="M61.84,70.56a7.34,7.34,0,1,1-7.34-7.34A7.34,7.34,0,0,1,61.84,70.56Z"/><path class="cls-2" d="M67.27,98.56c-.15-.44-.3-.88-.44-1.32s-.25-.78-.37-1.18-.28-1-.41-1.45-.2-.72-.29-1.09c-.13-.53-.25-1.06-.37-1.6l-.21-1q-.17-.86-.3-1.71c-.06-.32-.11-.63-.16-.94-.09-.61-.16-1.21-.22-1.82,0-.3-.08-.59-.11-.89-.06-.65-.1-1.3-.14-2,0-.27,0-.52-.06-.78q-.06-1.38-.06-2.76t.06-2.49l.06-.93c0-.5.07-1,.11-1.5L64.48,74c0-.38.09-.76.14-1.13s.13-1,.2-1.43l.09-.48a53.6,53.6,0,0,1,1.67-7.11A14.6,14.6,0,0,0,65,63.72a18.36,18.36,0,0,0-3.84.42A9.25,9.25,0,1,1,47.74,76.87,17.85,17.85,0,0,0,67.57,99.41Z"/><path class="cls-2" d="M119.75,135.8h-.1a55.62,55.62,0,1,1,39.47-16.36l-.06.06A55.27,55.27,0,0,1,119.75,135.8Zm.1-109.16a53.58,53.58,0,0,0-.19,107.16l.08,1v-1a53.27,53.27,0,0,0,37.85-15.65.19.19,0,0,1,.06-.07,53.59,53.59,0,0,0-37.8-91.44Zm-.09,95.19a41.62,41.62,0,0,1,0-83.23h.06a41.62,41.62,0,0,1-.07,83.23Zm0-82.23v1a39.43,39.43,0,1,0,.06,0Z"/><path class="cls-2" d="M164.82,133.67h0a8,8,0,0,1-5.66-2.35l-6.9-7.13a1,1,0,0,1-.28-.76,1,1,0,0,1,.39-.72,57,57,0,0,0,5.22-4.56.19.19,0,0,1,.06-.07,55,55,0,0,0,4.44-5,1,1,0,0,1,1.51-.08l6.88,7.11a8,8,0,0,1,0,11.26l-.07.07A7.93,7.93,0,0,1,164.82,133.67ZM154.47,123.6l6.12,6.32a6,6,0,0,0,4.23,1.75h0a6,6,0,0,0,4.22-1.75l.06-.06a6,6,0,0,0,0-8.4l-6.11-6.3a57,57,0,0,1-3.83,4.28l-.06.06A55.46,55.46,0,0,1,154.47,123.6Z"/><path class="cls-2" d="M216.71,192.53h0a14.88,14.88,0,0,1-10.61-4.4l-42.58-42.79A15,15,0,0,1,159.66,131a1,1,0,0,1,.64-.69,1,1,0,0,1,.93.14,6,6,0,0,0,7.81-.54l.06-.06a6,6,0,0,0,.41-7.88,1,1,0,0,1-.16-.93,1,1,0,0,1,.67-.65,15.07,15.07,0,0,1,4.12-.58,14.82,14.82,0,0,1,10.59,4.41L227.32,167a15,15,0,0,1,0,21.13l0,0A14.89,14.89,0,0,1,216.71,192.53Zm-55.39-59.68a13,13,0,0,0,3.62,11.08l42.58,42.78a13,13,0,0,0,18.32.06l0,0h0a13,13,0,0,0,0-18.32l-42.59-42.78a12.83,12.83,0,0,0-9.17-3.82,13.79,13.79,0,0,0-2.23.19,8,8,0,0,1-1.44,9.31l-.07.07a7.94,7.94,0,0,1-5.57,2.27A8.06,8.06,0,0,1,161.32,132.85Z"/><path class="cls-2" d="M103.3,118.65l-.85-1.81a86.4,86.4,0,0,0,38.12-35.2,86.15,86.15,0,0,0-40.38-36.22l.8-1.84a88.16,88.16,0,0,1,41.6,37.57,1,1,0,0,1,0,1A88.4,88.4,0,0,1,103.3,118.65Z"/><path class="cls-2" d="M91.32,110.19,90,108.67a36.4,36.4,0,0,0-.61-55.93l1.26-1.55a38.39,38.39,0,0,1,.65,59Z"/><path class="cls-2" d="M82.4,97.64,81,96.2a21.09,21.09,0,0,0,.53-29.95L83,64.85a23.08,23.08,0,0,1-.58,32.79Z"/><path class="cls-2" d="M74.52,51.55l-1.69-1.08a54.94,54.94,0,0,1,3.92-5.42l1.54,1.27A54.32,54.32,0,0,0,74.52,51.55Z"/><path class="cls-2" d="M74.55,112.51a55.88,55.88,0,0,1-6.53-12l1.87-.74a52.76,52.76,0,0,0,6.29,11.53Z"/><path class="cls-2" d="M68,100.55A55.67,55.67,0,0,1,67,62.8l1.9.63a53.56,53.56,0,0,0,1,36.38Z"/><path class="cls-2" d="M68.88,63.43,67,62.8a54.42,54.42,0,0,1,5.85-12.33l1.69,1.08A52.58,52.58,0,0,0,68.88,63.43Z"/><path class="cls-2" d="M80,119a56.91,56.91,0,0,1-5.44-6.5l1.62-1.17a53.88,53.88,0,0,0,5.26,6.27Z"/><path class="cls-2" d="M65.18,121A74.77,74.77,0,0,1,.13,82.8a1,1,0,0,1,0-1A74.49,74.49,0,0,1,77.69,44.7l-.34,2A72.49,72.49,0,0,0,2.15,82.31a72.56,72.56,0,0,0,78.35,35l.42,2A75,75,0,0,1,65.18,121Z"/><path class="cls-2" d="M65.17,114.6a32.88,32.88,0,1,1,8.77-64.55L73.41,52A30.87,30.87,0,1,0,75,111l.64,1.89A32.71,32.71,0,0,1,65.17,114.6Z"/><polygon class="cls-2" points="50.16 78.52 50.07 78.47 51.07 76.74 50.16 78.52"/><path class="cls-6" d="M51.56,78.1Z"/><polygon class="cls-2" points="61.9 69.67 61.86 69.41 63.84 69.12 63.88 69.42 61.9 69.67"/><path class="cls-2" d="M52.48,79.45l-.3-.08.55-1.92.22,0Z"/><path class="cls-2" d="M61.76,68.85c0-.09,0-.17-.07-.26l1.93-.54a3.38,3.38,0,0,1,.08.34Z"/><path class="cls-2" d="M59.52,65.1a7.79,7.79,0,0,0-.63-.51L60.05,63a10.19,10.19,0,0,1,.8.64Z"/><path class="cls-2" d="M51.18,79a9.59,9.59,0,0,1-1-.5l1-1.74a7.31,7.31,0,0,0,.79.4Z"/><path class="cls-2" d="M53.59,79.65l-.26,0,.26-2,.25,0Z"/><path class="cls-2" d="M52.18,79.37a8.44,8.44,0,0,1-1-.35l.76-1.84c.26.1.52.19.79.27Z"/><path class="cls-2" d="M49.12,77.83a9.25,9.25,0,0,1-2.29-2.54l1.71-1a7.23,7.23,0,0,0,1.79,2Z"/><path class="cls-2" d="M50.06,78.46a8.32,8.32,0,0,1-.85-.56l1.19-1.61a7.83,7.83,0,0,0,.67.45Z"/><path class="cls-2" d="M54.71,79.73a9.19,9.19,0,0,1-1.11-.08l.24-2a8.48,8.48,0,0,0,.87.06Z"/><path class="cls-2" d="M53.28,79.61c-.27,0-.54-.1-.8-.17L53,77.5a4.7,4.7,0,0,0,.63.13Z"/><polygon class="cls-2" points="49.21 77.9 49.12 77.83 50.33 76.24 49.21 77.9"/><path class="cls-2" d="M61.11,67.11a6.88,6.88,0,0,0-.94-1.36l1.51-1.32a10,10,0,0,1,1.2,1.74Z"/><polygon class="cls-2" points="59.59 65.16 60.86 63.61 60.9 63.65 59.59 65.16"/><path class="cls-2" d="M61.69,68.58c0-.18-.11-.37-.18-.55l1.89-.67c.08.23.15.46.22.7Z"/><polygon class="cls-2" points="60.18 65.76 61.62 64.36 60.92 65.09 60.18 65.76"/><path class="cls-2" d="M61.43,67.82a3.93,3.93,0,0,0-.3-.66l1.78-.93c.14.28.27.57.39.86Z"/><path class="cls-2" d="M61.86,69.41a5.72,5.72,0,0,0-.11-.57l2-.45c.06.24.1.48.14.72Z"/><polygon class="cls-2" points="61.11 67.1 62.87 66.17 62.93 66.28 61.11 67.1"/><polygon class="cls-2" points="61.52 68.04 61.44 67.82 63.3 67.09 63.37 67.29 61.52 68.04"/><path class="cls-2" d="M60.11,65.69a6.63,6.63,0,0,0-.52-.54l1.35-1.47c.23.21.45.44.66.67Z"/><path class="cls-2" d="M64,70.49H62a7.55,7.55,0,0,0-.05-.83l2-.23A9.28,9.28,0,0,1,64,70.49Z"/><path class="cls-2" d="M46.83,75.29A9.23,9.23,0,0,1,60.05,63l-1.16,1.63a7.23,7.23,0,0,0-10.35,9.66Z"/><path class="cls-2" d="M59.53,65.1c-.21-.18-.42-.35-.64-.51L60.05,63a10.19,10.19,0,0,1,.8.64Z"/><polygon class="cls-2" points="49.21 77.9 49.11 77.82 49.72 77.03 50.4 76.29 49.21 77.9"/><path class="cls-2" d="M61.43,67.82a3.93,3.93,0,0,0-.3-.66l1.78-.93c.14.28.27.57.39.86Z"/><path class="cls-2" d="M61.86,69.41a5.72,5.72,0,0,0-.11-.57l2-.45c.06.24.1.48.14.72Z"/><path class="cls-2" d="M61.69,68.58c0-.18-.11-.37-.18-.55l1.89-.67c.08.23.15.46.22.7Z"/><path class="cls-2" d="M61.11,67.11a6.88,6.88,0,0,0-.94-1.36l1.51-1.32a9.64,9.64,0,0,1,1.2,1.74Z"/><path class="cls-2" d="M64,70.49H62a7.55,7.55,0,0,0-.05-.83l2-.23A9.28,9.28,0,0,1,64,70.49Z"/><path class="cls-2" d="M60.11,65.69a6.63,6.63,0,0,0-.52-.54l1.35-1.47c.23.21.45.44.66.67Z"/><polygon class="cls-2" points="52.48 79.44 52.19 79.37 52.73 77.45 52.91 77.49 52.72 78.47 52.48 79.44"/><polygon class="cls-2" points="50.16 78.52 50.07 78.47 51.07 76.74 51.14 76.78 50.16 78.52"/><polygon class="cls-2" points="61.11 67.1 61.1 67.09 62.87 66.17 62.93 66.28 61.11 67.1"/><polygon class="cls-2" points="60.15 65.72 61.6 64.34 61.67 64.42 60.15 65.72"/><path class="cls-2" d="M61.76,68.85c0-.09,0-.17-.07-.26l1.93-.54a3.38,3.38,0,0,1,.08.34Z"/><polygon class="cls-2" points="61.9 69.67 61.86 69.41 63.84 69.12 63.88 69.42 61.9 69.67"/><path class="cls-2" d="M65.18,101.56A19.84,19.84,0,0,1,46.75,74.4l1.86.74A17.84,17.84,0,0,0,65.18,99.56a18,18,0,0,0,3.58-.36l.39,2A20.33,20.33,0,0,1,65.18,101.56Z"/><path class="cls-2" d="M59.77,64.73l-.6-1.91a20,20,0,0,1,6-.93,19.48,19.48,0,0,1,2.89.24l-.29,2a17.08,17.08,0,0,0-2.6-.22A17.72,17.72,0,0,0,59.77,64.73Z"/><polygon class="cls-2" points="59.59 65.16 59.55 65.12 60.86 63.61 59.59 65.16"/><polygon class="cls-2" points="61.52 68.04 61.44 67.83 63.29 67.08 63.37 67.29 61.52 68.04"/><path class="cls-2" d="M53.28,79.61c-.27,0-.54-.1-.81-.17L53,77.5a4.7,4.7,0,0,0,.63.13Z"/><path class="cls-2" d="M53.6,79.65l-.27,0,.26-2,.25,0Z"/><path class="cls-6" d="M51.56,78.1Z"/><path class="cls-2" d="M52.18,79.37a8.44,8.44,0,0,1-1-.35l.76-1.84c.26.1.53.19.79.27Z"/><path class="cls-2" d="M54.71,79.73a9.05,9.05,0,0,1-1.11-.08l.24-2a8.48,8.48,0,0,0,.87.06Z"/><path class="cls-2" d="M51.18,79a8.73,8.73,0,0,1-1-.5l1-1.74a7.31,7.31,0,0,0,.79.4Z"/><path class="cls-2" d="M50.06,78.46a9.74,9.74,0,0,1-.86-.56l1.2-1.61a7.83,7.83,0,0,0,.67.45Z"/><path class="cls-2" d="M49.11,77.83a9.52,9.52,0,0,1-2.28-2.54l1.71-1a7.23,7.23,0,0,0,1.79,2Z"/><path class="cls-2" d="M54.71,79.73v-2A7.25,7.25,0,0,0,62,70.49h2A9.25,9.25,0,0,1,54.71,79.73Z"/><path class="cls-7" d="M95.36,147.09H91.45a2.47,2.47,0,0,1-2.17-1.57l-.73-1.76a2.46,2.46,0,0,1,.43-2.64l2.76-2.76a1.64,1.64,0,0,0,0-2.33l-4.26-4.27a1.65,1.65,0,0,0-2.33,0l-2.76,2.76a2.44,2.44,0,0,1-2.64.43L78,134.22a2.43,2.43,0,0,1-1.56-2.17v-3.9a1.66,1.66,0,0,0-1.66-1.65h-6a1.65,1.65,0,0,0-1.65,1.65v3.9a2.43,2.43,0,0,1-1.56,2.17l-1.77.73a2.42,2.42,0,0,1-2.63-.43l-2.77-2.76a1.64,1.64,0,0,0-2.32,0L51.77,136a1.65,1.65,0,0,0,0,2.33l2.76,2.76a2.46,2.46,0,0,1,.43,2.64l-.73,1.76a2.45,2.45,0,0,1-2.17,1.57H48.15a1.65,1.65,0,0,0-1.64,1.64v6a1.65,1.65,0,0,0,1.64,1.65h3.91A2.44,2.44,0,0,1,54.23,158l.73,1.77a2.45,2.45,0,0,1-.43,2.63l-2.76,2.76a1.65,1.65,0,0,0,0,2.33L56,171.74a1.64,1.64,0,0,0,2.32,0L61.13,169a2.44,2.44,0,0,1,2.63-.43l1.77.73a2.44,2.44,0,0,1,1.56,2.17v3.9A1.65,1.65,0,0,0,68.74,177h6a1.66,1.66,0,0,0,1.66-1.65v-3.9A2.44,2.44,0,0,1,78,169.28l1.76-.73a2.46,2.46,0,0,1,2.64.43l2.76,2.76a1.65,1.65,0,0,0,2.33,0l4.26-4.27a1.64,1.64,0,0,0,0-2.33L89,162.38a2.45,2.45,0,0,1-.43-2.63l.73-1.77a2.46,2.46,0,0,1,2.17-1.56h3.91A1.65,1.65,0,0,0,97,154.77v-6A1.65,1.65,0,0,0,95.36,147.09Zm-23.6,12.62a8,8,0,1,1,8-8A8,8,0,0,1,71.76,159.71Z"/><path class="cls-2" d="M74.77,178h-6a2.65,2.65,0,0,1-2.65-2.65v-3.9a1.46,1.46,0,0,0-.88-1.22l-1.83-.75a1.36,1.36,0,0,0-1.54.21l-2.77,2.76a2.73,2.73,0,0,1-3.74,0l-4.27-4.27a2.66,2.66,0,0,1,0-3.74l2.76-2.76a1.47,1.47,0,0,0,.24-1.49l-.75-1.83a1.48,1.48,0,0,0-1.25-.94H48.15a2.65,2.65,0,0,1-2.64-2.65v-6a2.64,2.64,0,0,1,2.64-2.64h3.91a1.45,1.45,0,0,0,1.22-.89l.75-1.82a1.48,1.48,0,0,0-.21-1.55l-2.76-2.76a2.67,2.67,0,0,1,0-3.75l4.27-4.27a2.73,2.73,0,0,1,3.74,0l2.76,2.77a1.54,1.54,0,0,0,1.49.24l1.82-.76a1.49,1.49,0,0,0,1-1.25v-3.9a2.65,2.65,0,0,1,2.65-2.65h6a2.66,2.66,0,0,1,2.66,2.65v3.9a1.45,1.45,0,0,0,.87,1.22l1.83.76a1.36,1.36,0,0,0,1.55-.22l2.76-2.76a2.73,2.73,0,0,1,3.74,0l4.27,4.28a2.63,2.63,0,0,1,0,3.74l-2.76,2.76a1.45,1.45,0,0,0-.24,1.48l.76,1.83a1.48,1.48,0,0,0,1.24,1h3.91A2.65,2.65,0,0,1,98,148.73v6a2.65,2.65,0,0,1-2.65,2.65H91.45a1.46,1.46,0,0,0-1.22.87l-.75,1.84a1.48,1.48,0,0,0,.21,1.55l2.76,2.76a2.66,2.66,0,0,1,0,3.74l-4.27,4.27a2.72,2.72,0,0,1-3.74,0l-2.76-2.76a1.52,1.52,0,0,0-1.48-.24l-1.83.75a1.48,1.48,0,0,0-.94,1.25v3.9A2.66,2.66,0,0,1,74.77,178Zm-12-10.66a3.14,3.14,0,0,1,1.41.32l1.7.7a3.39,3.39,0,0,1,2.18,3.09v3.9a.65.65,0,0,0,.65.65h6a.66.66,0,0,0,.66-.65v-3.9a3.47,3.47,0,0,1,2.24-3.12l1.7-.7a3,3,0,0,1,1.34-.29,3.42,3.42,0,0,1,2.38.93L85.85,171a.69.69,0,0,0,.92,0L91,166.76a.59.59,0,0,0,.18-.45.63.63,0,0,0-.18-.46l-2.77-2.76a3.48,3.48,0,0,1-.61-3.79l.7-1.7a3.42,3.42,0,0,1,3.09-2.18h3.91a.65.65,0,0,0,.65-.65v-6a.65.65,0,0,0-.65-.64H91.45a3.44,3.44,0,0,1-3.11-2.25l-.71-1.7a3.45,3.45,0,0,1,.64-3.72L91,137.65a.64.64,0,0,0,0-.91l-4.27-4.27a.68.68,0,0,0-.92,0l-2.76,2.76a3.54,3.54,0,0,1-3.79.62l-1.7-.7a3.45,3.45,0,0,1-2.17-3.1v-3.9a.66.66,0,0,0-.66-.65h-6a.66.66,0,0,0-.65.65v3.9a3.46,3.46,0,0,1-2.25,3.12l-1.69.71a3.21,3.21,0,0,1-1.35.28,3.42,3.42,0,0,1-2.38-.93l-2.76-2.76a.67.67,0,0,0-.91,0l-4.28,4.27a.63.63,0,0,0-.18.46.63.63,0,0,0,.18.45l2.77,2.77a3.48,3.48,0,0,1,.61,3.79l-.69,1.69a3.45,3.45,0,0,1-3.1,2.19H48.15a.64.64,0,0,0-.64.64v6a.65.65,0,0,0,.64.65h3.91a3.46,3.46,0,0,1,3.12,2.24l.7,1.71a3.45,3.45,0,0,1-.64,3.72l-2.77,2.76a.63.63,0,0,0-.18.46.63.63,0,0,0,.18.45L56.75,171a.68.68,0,0,0,.91,0l2.76-2.77A3.42,3.42,0,0,1,62.8,167.34Zm9-6.63a9,9,0,1,1,9-9A9,9,0,0,1,71.76,160.71Zm0-15.92a7,7,0,1,0,7,7A7,7,0,0,0,71.76,144.79Z"/><path class="cls-2" d="M70.69,34.25a1,1,0,0,1-.64-.24c-.57-.48-13.77-11.82-13.77-19.6a14.41,14.41,0,0,1,28.82,0c0,7.78-13.2,19.12-13.76,19.6A1,1,0,0,1,70.69,34.25ZM70.69,2A12.43,12.43,0,0,0,58.28,14.41c0,5.38,8.42,14,12.41,17.51C73.32,29.56,83.1,20.38,83.1,14.41A12.42,12.42,0,0,0,70.69,2Z"/><path class="cls-2" d="M70.69,21.21a6.8,6.8,0,1,1,6.8-6.8A6.81,6.81,0,0,1,70.69,21.21Zm0-11.6a4.8,4.8,0,1,0,4.8,4.8A4.81,4.81,0,0,0,70.69,9.61Z"/><path class="cls-2" d="M29.17,145.05a11.88,11.88,0,1,1,11.88-11.87A11.89,11.89,0,0,1,29.17,145.05Zm0-21.75a9.88,9.88,0,1,0,9.88,9.88A9.89,9.89,0,0,0,29.17,123.3Z"/><path class="cls-2" d="M29.17,145.05c-4.09,0-7.29-5.21-7.29-11.87s3.2-11.88,7.29-11.88,7.29,5.22,7.29,11.88S33.26,145.05,29.17,145.05Zm0-21.75c-2.87,0-5.29,4.53-5.29,9.88s2.42,9.87,5.29,9.87,5.29-4.52,5.29-9.87S32,123.3,29.17,123.3Z"/><path class="cls-2" d="M29.17,145.05a1,1,0,0,1-1-1V122.3a1,1,0,0,1,1-1,11.88,11.88,0,1,1,0,23.75Zm1-21.7V143a9.88,9.88,0,0,0,0-19.65Z"/><path class="cls-2" d="M39.34,138H19a1,1,0,0,1-.93-.65,11.62,11.62,0,0,1,0-8.37,1,1,0,0,1,.93-.64H39.34a1,1,0,0,1,.93.64,11.69,11.69,0,0,1,.78,4.19,11.91,11.91,0,0,1-.78,4.19A1,1,0,0,1,39.34,138Zm-19.62-2h18.9a9.81,9.81,0,0,0,.43-2.83,9.71,9.71,0,0,0-.43-2.83H19.72a9.71,9.71,0,0,0-.43,2.83A9.81,9.81,0,0,0,19.72,136Z"/><path class="cls-2" d="M46.6,40.25H41.27a1,1,0,0,1-1-1V17.75a1,1,0,0,1,1-1H46.6a1,1,0,0,1,1,1v21.5A1,1,0,0,1,46.6,40.25Zm-4.33-2H45.6V18.75H42.27Z"/><path class="cls-2" d="M37.85,40.25H32.52a1,1,0,0,1-1-1V30.08a1,1,0,0,1,1-1h5.33a1,1,0,0,1,1,1v9.17A1,1,0,0,1,37.85,40.25Zm-4.33-2h3.33V31.08H33.52Z"/><path class="cls-2" d="M29.1,40.25H23.77a1,1,0,0,1-1-1V25.58a1,1,0,0,1,1-1H29.1a1,1,0,0,1,1,1V39.25A1,1,0,0,1,29.1,40.25Zm-4.33-2H28.1V26.58H24.77Z"/><path class="cls-2" d="M115.63,159.23a1,1,0,0,1-.71-.29,1,1,0,0,1,0-1.42l8.73-8.73a1,1,0,0,1,1.42,1.42l-8.73,8.73A1,1,0,0,1,115.63,159.23Z"/><path class="cls-2" d="M124.25,155.27l-.49,0a1,1,0,1,1,.18-2,3.32,3.32,0,0,0,2.66-.95l2.48-2.48a3.36,3.36,0,0,0,0-4.76l-.29-.28a3.35,3.35,0,0,0-4.75,0l-2.49,2.49a3.36,3.36,0,0,0-1,2.66,1,1,0,0,1-.9,1.08,1,1,0,0,1-1.09-.9,5.31,5.31,0,0,1,1.54-4.25l2.48-2.49a5.38,5.38,0,0,1,7.59,0l.28.28a5.38,5.38,0,0,1,0,7.59L128,153.72A5.3,5.3,0,0,1,124.25,155.27Z"/><path class="cls-2" d="M113.84,165.66a5.34,5.34,0,0,1-3.79-1.57l-.29-.28a5.37,5.37,0,0,1,0-7.58l2.48-2.49a5.32,5.32,0,0,1,4.25-1.53,1,1,0,0,1-.17,2,3.34,3.34,0,0,0-2.66,1l-2.49,2.49a3.38,3.38,0,0,0,0,4.76l.29.28a3.36,3.36,0,0,0,4.75,0l2.49-2.49a3.33,3.33,0,0,0,1-2.66,1,1,0,0,1,.91-1.08,1,1,0,0,1,1.08.9,5.3,5.3,0,0,1-1.53,4.26l-2.49,2.48A5.3,5.3,0,0,1,113.84,165.66Z"/></g></g></svg>