<svg xmlns="http://www.w3.org/2000/svg" viewBox="0 0 223.74 197.92"><defs><style>.cls-1{fill:#2c5871;}.cls-2{fill:#cceef5;}.cls-3{fill:#fff;}.cls-4{fill:#34ca9d;}</style></defs><title>keyb</title><g id="Слой_2" data-name="Слой 2"><g id="Layer_4" data-name="Layer 4"><path class="cls-1" d="M221.74,189.63H91.4a2,2,0,0,1-2-2V2a2,2,0,0,1,2-2H221.74a2,2,0,0,1,2,2V187.63A2,2,0,0,1,221.74,189.63Zm0-2v0ZM221.74,2H91.4V187.63H221.74Z"/><path class="cls-2" d="M222.74,11.6V2a1,1,0,0,0-1-1H91.4a1,1,0,0,0-1,1v9.6Z"/><path class="cls-1" d="M222.74,12.6H90.41a1,1,0,0,1-1-1V2a2,2,0,0,1,2-2H221.74a2,2,0,0,1,2,2v9.6A1,1,0,0,1,222.74,12.6Zm-131.33-2H221.74V2H91.4Z"/><path class="cls-3" d="M108,6.21a1.7,1.7,0,1,1-1.7-1.7A1.7,1.7,0,0,1,108,6.21Z"/><path class="cls-1" d="M106.33,8.9A2.7,2.7,0,1,1,109,6.21,2.7,2.7,0,0,1,106.33,8.9Zm0-3.39a.7.7,0,1,0,.7.7A.7.7,0,0,0,106.33,5.51Z"/><path class="cls-3" d="M102.49,6.21a1.7,1.7,0,1,1-1.7-1.7A1.7,1.7,0,0,1,102.49,6.21Z"/><path class="cls-1" d="M100.79,8.9a2.7,2.7,0,1,1,2.7-2.69A2.69,2.69,0,0,1,100.79,8.9Zm0-3.39a.7.7,0,1,0,.7.7A.7.7,0,0,0,100.79,5.51Z"/><path class="cls-3" d="M97,6.21a1.7,1.7,0,1,1-1.7-1.7A1.7,1.7,0,0,1,97,6.21Z"/><path class="cls-1" d="M95.25,8.9A2.7,2.7,0,1,1,98,6.21,2.7,2.7,0,0,1,95.25,8.9Zm0-3.39a.7.7,0,1,0,0,1.39.7.7,0,1,0,0-1.39Z"/><rect class="cls-1" x="101.21" y="26.91" width="23.67" height="2"/><rect class="cls-1" x="112.71" y="31.24" width="32.92" height="2"/><rect class="cls-1" x="112.71" y="35.57" width="29.67" height="2"/><rect class="cls-1" x="112.71" y="39.91" width="23.67" height="2"/><rect class="cls-1" x="101.21" y="75.91" width="23.67" height="2"/><rect class="cls-1" x="112.71" y="80.24" width="63.42" height="2"/><rect class="cls-1" x="112.71" y="84.57" width="53.5" height="2"/><rect class="cls-1" x="118.71" y="88.91" width="23.67" height="2"/><rect class="cls-1" x="101.21" y="52.41" width="23.67" height="2"/><rect class="cls-1" x="112.71" y="56.74" width="97.25" height="2"/><rect class="cls-1" x="112.71" y="61.07" width="94" height="2"/><rect class="cls-1" x="112.71" y="65.41" width="23.67" height="2"/><path class="cls-1" d="M23.77,93.19H11.89a1,1,0,0,1-1-1v-17a1,1,0,0,1,1-1H23.77a1,1,0,0,1,1,1v17A1,1,0,0,1,23.77,93.19Zm-10.88-2h9.88v-15H12.89Z"/><path class="cls-1" d="M17.87,92.41a.5.5,0,0,1-.5-.5V75.47a.5.5,0,0,1,1,0V91.91A.5.5,0,0,1,17.87,92.41Z"/><path class="cls-1" d="M23.85,81.25h-12a.5.5,0,0,1-.5-.5.5.5,0,0,1,.5-.5h12a.5.5,0,0,1,.5.5A.51.51,0,0,1,23.85,81.25Z"/><path class="cls-1" d="M23.85,86.94h-12a.5.5,0,0,1-.5-.5.5.5,0,0,1,.5-.5h12a.5.5,0,0,1,.5.5A.51.51,0,0,1,23.85,86.94Z"/><path class="cls-1" d="M9.06,84.33H5.35a1,1,0,1,1,0-2H9.06a1,1,0,1,1,0,2Z"/><path class="cls-1" d="M1,72.45a1,1,0,0,1-1-1V69.27a1,1,0,0,1,2,0v2.18A1,1,0,0,1,1,72.45Z"/><path class="cls-1" d="M13.42,72.45a1,1,0,0,1-1-1V69.27a1,1,0,0,1,2,0v2.18A1,1,0,0,1,13.42,72.45Z"/><path class="cls-1" d="M7.21,84a1,1,0,0,1-1-1V69.91a1,1,0,0,1,2,0V83A1,1,0,0,1,7.21,84Z"/><path class="cls-1" d="M13.42,70.27H1a1,1,0,0,1,0-2H13.42a1,1,0,1,1,0,2Z"/><path class="cls-1" d="M53.54,197.92a.89.89,0,0,1-.32,0,1,1,0,0,1-.63-1.26l7-21.45a1,1,0,0,1,.95-.69,1,1,0,0,1,1,.69l7,21.45a1,1,0,0,1-1.9.62l-6.07-18.54-6.06,18.54A1,1,0,0,1,53.54,197.92Z"/><path class="cls-1" d="M55.4,197.92H52.05a1,1,0,1,1,0-2H55.4a1,1,0,1,1,0,2Z"/><path class="cls-1" d="M69.05,197.92H65.71a1,1,0,0,1,0-2h3.34a1,1,0,0,1,0,2Z"/><path class="cls-1" d="M65,191.31h-9a1,1,0,0,1,0-2h9a1,1,0,1,1,0,2Z"/><path class="cls-1" d="M69.93,186.69a3.45,3.45,0,0,1-2.5-.93,3.1,3.1,0,0,1-1-2.32,2.72,2.72,0,0,1,.94-2.17,4.27,4.27,0,0,1,1.61-.89c.45-.12,1.24-.3,2.39-.55a20.05,20.05,0,0,0,2.42-.66,1,1,0,0,1,.93.11,1,1,0,0,1,.43.82v.59a7.36,7.36,0,0,1-.68,3.58A4.49,4.49,0,0,1,72.59,186,5.57,5.57,0,0,1,69.93,186.69Zm3.2-5.23c-.4.11-.84.21-1.33.32-1.1.24-1.87.42-2.29.53a2.22,2.22,0,0,0-.84.47.77.77,0,0,0-.24.66,1.13,1.13,0,0,0,.38.87,1.45,1.45,0,0,0,1.12.38,3.53,3.53,0,0,0,1.72-.42,2.54,2.54,0,0,0,1.08-1A4.35,4.35,0,0,0,73.13,181.46Z"/><path class="cls-1" d="M74.24,186.59a1,1,0,0,1-1-1v-6.52A2,2,0,0,0,71.32,177h-.69a1.94,1.94,0,0,0-1.76,1.26A1,1,0,1,1,67,177.5,3.91,3.91,0,0,1,70.63,175h.69a4,4,0,0,1,3.92,4.09v6.52A1,1,0,0,1,74.24,186.59Z"/><polygon class="cls-2" points="54.2 90.32 41.66 76.33 29.13 62.34 54.2 62.34 79.28 62.34 66.74 76.33 54.2 90.32"/><path class="cls-1" d="M54.2,91.32h0a1,1,0,0,1-.74-.33L28.38,63a1,1,0,0,1,.75-1.67H79.28A1,1,0,0,1,80,63L55,91A1,1,0,0,1,54.2,91.32Zm-22.83-28L54.2,88.82,77,63.34Z"/><polygon class="cls-4" points="54.2 90.32 48.67 76.33 43.15 62.34 54.2 62.34 65.26 62.34 59.73 76.33 54.2 90.32"/><path class="cls-1" d="M54.2,91.32a1,1,0,0,1-.93-.63l-11.05-28a1,1,0,0,1,.93-1.37H65.26a1,1,0,0,1,.82.44,1,1,0,0,1,.11.93l-11.06,28A1,1,0,0,1,54.2,91.32Zm-9.58-28L54.2,87.6l9.59-24.26Z"/><polygon class="cls-2" points="29.13 62.41 54.2 62.41 79.28 62.41 72.38 53.51 36.02 53.51 29.13 62.41"/><path class="cls-1" d="M79.28,63.41H29.13a1,1,0,0,1-.9-.56,1,1,0,0,1,.11-1.06l6.9-8.89a1,1,0,0,1,.79-.39H72.38a1,1,0,0,1,.79.39l6.9,8.89a1,1,0,0,1,.11,1.06A1,1,0,0,1,79.28,63.41Zm-48.11-2H77.24l-5.35-6.9H36.52Z"/><polygon class="cls-4" points="54.2 53.42 43.15 62.41 54.2 62.41 65.26 62.41 54.2 53.42"/><path class="cls-1" d="M65.26,63.41H43.15a1,1,0,0,1-.63-1.78l11-9a1,1,0,0,1,1.26,0l11.06,9a1,1,0,0,1,.31,1.11A1,1,0,0,1,65.26,63.41Zm-19.3-2H62.44l-8.24-6.7Z"/><polygon class="cls-4" points="43.06 62.41 36.05 53.51 36.02 53.51 29.13 62.41 43.06 62.41"/><path class="cls-1" d="M43.06,63.41H29.13a1,1,0,0,1-.9-.56,1,1,0,0,1,.11-1.06l6.9-8.89a1.05,1.05,0,0,1,1.59,0l7,8.9a1,1,0,0,1-.78,1.62Zm-11.89-2H41l-5-6.29Z"/><polygon class="cls-4" points="65.35 62.41 72.36 53.51 72.38 53.51 79.28 62.41 65.35 62.41"/><path class="cls-1" d="M79.3,63.41h-14a1,1,0,0,1-.79-1.62l7-8.9a1.05,1.05,0,0,1,1.59,0L80,61.66a1,1,0,0,1,.33.75A1,1,0,0,1,79.3,63.41Zm-11.89-2h9.83l-4.88-6.29Z"/><rect class="cls-3" x="23.71" y="102.97" width="148" height="64.11"/><path class="cls-1" d="M170.7,104v62.11h-146V104Zm2-2h-150v66.11h150V102Z"/><path class="cls-1" d="M42.4,115.12v6.58H35.82v-6.58Zm2-2H33.82V123.7H44.4V113.12Z"/><path class="cls-1" d="M57.05,115.12v6.58H50.47v-6.58Zm2-2H48.47V123.7H59.05V113.12Z"/><path class="cls-1" d="M71.7,115.12v6.58H65.12v-6.58Zm2-2H63.12V123.7H73.7V113.12Z"/><path class="cls-1" d="M86.35,115.12v6.58H79.77v-6.58Zm2-2H77.77V123.7H88.35V113.12Z"/><path class="cls-1" d="M101,115.12v6.58H94.41v-6.58Zm2-2H92.41V123.7H103V113.12Z"/><path class="cls-1" d="M115.64,115.12v6.58h-6.58v-6.58Zm2-2H107.06V123.7h10.58V113.12Z"/><path class="cls-1" d="M130.29,115.12v6.58h-6.58v-6.58Zm2-2H121.71V123.7h10.58V113.12Z"/><path class="cls-1" d="M144.94,115.12v6.58h-6.58v-6.58Zm2-2H136.36V123.7h10.58V113.12Z"/><path class="cls-1" d="M159.59,115.12v6.58H153v-6.58Zm2-2H151V123.7h10.58V113.12Z"/><path class="cls-1" d="M42.4,129.73v6.57H35.82v-6.57Zm2-2H33.82V138.3H44.4V127.73Z"/><path class="cls-1" d="M57.05,129.73v6.57H50.47v-6.57Zm2-2H48.47V138.3H59.05V127.73Z"/><path class="cls-1" d="M71.7,129.73v6.57H65.12v-6.57Zm2-2H63.12V138.3H73.7V127.73Z"/><path class="cls-1" d="M86.35,129.73v6.57H79.77v-6.57Zm2-2H77.77V138.3H88.35V127.73Z"/><path class="cls-1" d="M101,129.73v6.57H94.41v-6.57Zm2-2H92.41V138.3H103V127.73Z"/><path class="cls-1" d="M115.64,129.73v6.57h-6.58v-6.57Zm2-2H107.06V138.3h10.58V127.73Z"/><path class="cls-1" d="M130.29,129.73v6.57h-6.58v-6.57Zm2-2H121.71V138.3h10.58V127.73Z"/><path class="cls-1" d="M144.94,129.73v6.57h-6.58v-6.57Zm2-2H136.36V138.3h10.58V127.73Z"/><path class="cls-1" d="M159.59,129.73v6.57H153v-6.57Zm2-2H151V138.3h10.58V127.73Z"/><path class="cls-1" d="M42.4,144.33v6.58H35.82v-6.58Zm2-2H33.82v10.58H44.4V142.33Z"/><path class="cls-1" d="M115.64,144.33v6.58H50.47v-6.58h65.17Zm2-2H48.47v10.58h69.17V142.33Z"/><path class="cls-1" d="M130.29,144.33v6.58h-6.58v-6.58Zm2-2H121.71v10.58h10.58V142.33Z"/><path class="cls-1" d="M144.94,144.33v6.58h-6.58v-6.58Zm2-2H136.36v10.58h10.58V142.33Z"/><path class="cls-1" d="M159.59,144.33v6.58H153v-6.58Zm2-2H151v10.58h10.58V142.33Z"/><path class="cls-1" d="M45.59,38a1,1,0,0,1-.7-.3l-8.57-8.57a1,1,0,0,1,0-1.41l8.57-8.58a1,1,0,1,1,1.41,1.41l-7.86,7.87,7.86,7.87A1,1,0,0,1,45.59,38Z"/><path class="cls-1" d="M52.34,38a1.08,1.08,0,0,1-.38-.08,1,1,0,0,1-.54-1.3l7-17.15a1,1,0,1,1,1.85.76l-7,17.15A1,1,0,0,1,52.34,38Z"/><path class="cls-1" d="M65,38a1,1,0,0,1-.7-1.71l7.86-7.87-7.86-7.87a1,1,0,0,1,0-1.41,1,1,0,0,1,1.41,0l8.57,8.58a1,1,0,0,1,0,1.41L65.73,37.7A1,1,0,0,1,65,38Z"/></g></g></svg>