<svg xmlns="http://www.w3.org/2000/svg" viewBox="0 0 236.19 167.9"><defs><style>.cls-1{fill:#2c5871;}.cls-2{fill:#f1fafc;}.cls-3{fill:#cceef5;}.cls-4{fill:#fff;}.cls-5{fill:#fcbe0f;}.cls-6{fill:#34ca9d;}</style></defs><title>laptop</title><g id="Слой_2" data-name="Слой 2"><g id="Layer_4" data-name="Layer 4"><path class="cls-1" d="M155.44,41.93a19.38,19.38,0,1,1,19.38-19.37A19.4,19.4,0,0,1,155.44,41.93Zm0-36.75a17.38,17.38,0,1,0,17.38,17.38A17.4,17.4,0,0,0,155.44,5.18Z"/><path class="cls-1" d="M155.44,41.93c-6.52,0-11.63-8.51-11.63-19.37s5.11-19.38,11.63-19.38,11.63,8.51,11.63,19.38S162,41.93,155.44,41.93Zm0-36.75c-5.22,0-9.63,8-9.63,17.38s4.41,17.37,9.63,17.37,9.63-8,9.63-17.37S160.66,5.18,155.44,5.18Z"/><path class="cls-1" d="M155.44,41.93a1,1,0,0,1-1-1V4.18a1,1,0,0,1,1-1,19.38,19.38,0,1,1,0,38.75Zm1-36.72V39.9a17.37,17.37,0,0,0,0-34.69Z"/><path class="cls-1" d="M172.62,30H138.26a1,1,0,0,1-.94-.64,19.47,19.47,0,0,1-1.26-6.83,19.27,19.27,0,0,1,1.27-6.84,1,1,0,0,1,.93-.64h34.36a1,1,0,0,1,.93.65,19,19,0,0,1,0,13.66A1,1,0,0,1,172.62,30ZM139,28h32.95a16.93,16.93,0,0,0,0-11H139a17.21,17.21,0,0,0-.91,5.48A17.46,17.46,0,0,0,139,28Z"/><path class="cls-1" d="M126.24,26.12H102.47V2.35h23.77Zm-21.77-2h19.77V4.35H104.47Z"/><rect class="cls-1" x="103.82" y="8.18" width="21.06" height="2"/><path class="cls-1" d="M106.7,5.24a.95.95,0,1,0,0,1.89.95.95,0,0,0,0-1.89Z"/><path class="cls-1" d="M109.26,5.24a.95.95,0,1,0,0,1.89.95.95,0,0,0,0-1.89Z"/><path class="cls-1" d="M111.82,5.24a.95.95,0,1,0,0,1.89.95.95,0,0,0,0-1.89Z"/><polygon class="cls-1" points="113.46 20.55 110.17 17.88 111.44 16.33 113.17 17.73 117.12 12.85 118.67 14.11 113.46 20.55"/><rect class="cls-1" x="232.32" y="91.46" width="3.87" height="2"/><rect class="cls-1" x="222.47" y="91.46" width="3.22" height="2"/><rect class="cls-1" x="222.47" y="98.8" width="3.22" height="2"/><path class="cls-1" d="M230.31,95.13H225V89.8h5.34Zm-3.34-2h1.34V91.8H227Z"/><rect class="cls-1" x="232.32" y="98.8" width="3.87" height="2"/><path class="cls-1" d="M230.31,102.46H225V97.13h5.34Zm-3.34-2h1.34V99.13H227Z"/><rect class="cls-1" x="220.97" y="88.24" width="2" height="11.55"/><path class="cls-1" d="M189,20.48l-2.22,0a1.59,1.59,0,0,1-1.58-1.62V17.53l-.55-.24-.94.92a1.65,1.65,0,0,1-2.27,0l-1.54-1.57a1.61,1.61,0,0,1,0-2.27l.94-.92-.22-.56h-1.32a1.6,1.6,0,0,1-1.58-1.62l0-2.2a1.61,1.61,0,0,1,1.6-1.59h1.34l.23-.55L180,6a1.58,1.58,0,0,1-.46-1.14A1.6,1.6,0,0,1,180,3.7l1.58-1.54a1.65,1.65,0,0,1,2.26,0l.93.95.55-.23V1.58A1.61,1.61,0,0,1,187,0l2.23,0a1.68,1.68,0,0,1,1.13.48,1.58,1.58,0,0,1,.45,1.14V3l.55.23.94-.92a1.63,1.63,0,0,1,2.26,0l1.55,1.58a1.59,1.59,0,0,1,0,2.27l-.94.92.23.55h1.31a1.61,1.61,0,0,1,1.59,1.62l0,2.21a1.61,1.61,0,0,1-1.6,1.59h0l-1.34,0-.23.56.92.93a1.59,1.59,0,0,1,0,2.27l-1.57,1.54a1.63,1.63,0,0,1-2.26,0l-.94-1-.54.23V18.9A1.61,1.61,0,0,1,189,20.48Zm-1.8-2h1.41v-1a1.9,1.9,0,0,1,1.27-1.73l.58-.23a1.71,1.71,0,0,1,.72-.15,1.88,1.88,0,0,1,1.33.54l.73.74,1-1-.72-.74a1.89,1.89,0,0,1-.32-2.12l.25-.58A1.84,1.84,0,0,1,195.17,11h1l0-1.41h-1a1.87,1.87,0,0,1-1.73-1.28l-.24-.57a1.88,1.88,0,0,1,.39-2l.74-.72-1-1-.73.72a1.92,1.92,0,0,1-2.12.32l-.58-.24a1.86,1.86,0,0,1-1.17-1.73V2l-1.41,0V3a1.87,1.87,0,0,1-1.27,1.73L185.5,5a1.79,1.79,0,0,1-.71.14,1.9,1.9,0,0,1-1.34-.53l-.72-.74-1,1,.72.73a1.89,1.89,0,0,1,.33,2.12l-.24.58a1.88,1.88,0,0,1-1.72,1.17h-1.05v1.41h1a1.9,1.9,0,0,1,1.73,1.27l.24.59a1.88,1.88,0,0,1-.4,2l-.74.72,1,1,.74-.72a1.93,1.93,0,0,1,2.11-.33l.59.25a1.84,1.84,0,0,1,1.17,1.72Zm.79-4.32a3.91,3.91,0,1,1,0-7.82h0a3.91,3.91,0,0,1,0,7.82Zm0-6.82v1a1.91,1.91,0,0,0-1.36,3.25,1.87,1.87,0,0,0,1.34.57h0a1.91,1.91,0,0,0,0-3.82Z"/><path class="cls-2" d="M23.17,155.87H206.83V42.13a4.69,4.69,0,0,0-4.67-4.69h-179a4.7,4.7,0,0,0-4.69,4.69V155.87Z"/><path class="cls-1" d="M206.83,156.87H18.48a1,1,0,0,1-1-1V42.13a5.69,5.69,0,0,1,5.69-5.69h179a5.68,5.68,0,0,1,5.67,5.69V155.87A1,1,0,0,1,206.83,156.87Zm-187.35-2H205.83V42.13a3.69,3.69,0,0,0-3.67-3.69h-179a3.69,3.69,0,0,0-3.69,3.69Z"/><rect class="cls-3" x="30.16" y="48.71" width="165.01" height="95.63"/><path class="cls-1" d="M195.17,145.34h-165a1,1,0,0,1-1-1V48.71a1,1,0,0,1,1-1h165a1,1,0,0,1,1,1v95.63A1,1,0,0,1,195.17,145.34Zm-164-2h163V49.71h-163Z"/><rect class="cls-4" x="30.16" y="48.71" width="81.48" height="95.63"/><path class="cls-1" d="M111.64,145.34H30.16a1,1,0,0,1-1-1V48.71a1,1,0,0,1,1-1h81.48a1,1,0,0,1,1,1v95.63A1,1,0,0,1,111.64,145.34Zm-80.48-2h79.48V49.71H31.16Z"/><rect class="cls-5" x="111.69" y="48.71" width="83.48" height="11.25"/><path class="cls-1" d="M195.17,61H111.69a1,1,0,0,1-1-1V48.71a1,1,0,0,1,1-1h83.48a1,1,0,0,1,1,1V60A1,1,0,0,1,195.17,61Zm-82.48-2h81.48V49.71H112.69Z"/><rect class="cls-6" x="118.35" y="66.71" width="70.15" height="23.91"/><path class="cls-1" d="M188.5,91.63H118.35a1,1,0,0,1-1-1V66.71a1,1,0,0,1,1-1H188.5a1,1,0,0,1,1,1V90.63A1,1,0,0,1,188.5,91.63Zm-69.15-2H187.5V67.71H119.35Z"/><path class="cls-2" d="M224.2,156.43H147a3.13,3.13,0,0,1-3.08,2.86H81.39a3.13,3.13,0,0,1-3.07-2.86H1.12c0,.38-.12.74-.12,1.13V161c0,5.61,4.54,5.94,10.17,5.94h203c5.59,0,10.17-.33,10.17-5.94v-3.4A10.56,10.56,0,0,0,224.2,156.43Z"/><path class="cls-1" d="M214.16,167.9h-203C6.45,167.9,0,167.9,0,161v-3.4a7.35,7.35,0,0,1,.07-.82c0-.13,0-.25,0-.38a1,1,0,0,1,1-.93h77.2a1,1,0,0,1,1,.9,2.11,2.11,0,0,0,2.07,2h62.54a2.13,2.13,0,0,0,2.08-2,1,1,0,0,1,1-.9H224.2a1,1,0,0,1,1,.91c0,.13,0,.25.05.37a6,6,0,0,1,.08.85V161C225.33,167.9,218.87,167.9,214.16,167.9ZM2,157.43V161c0,4.25,2.7,4.94,9.17,4.94h203c6.47,0,9.17-.69,9.17-4.94v-3.4a.62.62,0,0,0,0-.13H147.81a4.1,4.1,0,0,1-3.88,2.86H81.39a4.09,4.09,0,0,1-3.87-2.86Z"/><rect class="cls-1" x="36.78" y="60.5" width="23.67" height="2"/><rect class="cls-1" x="48.28" y="64.84" width="32.92" height="2"/><rect class="cls-1" x="48.28" y="69.17" width="29.67" height="2"/><rect class="cls-1" x="48.28" y="73.5" width="23.67" height="2"/><rect class="cls-1" x="36.78" y="109.5" width="23.67" height="2"/><rect class="cls-1" x="48.28" y="113.84" width="60.42" height="2"/><rect class="cls-1" x="48.28" y="118.17" width="53.5" height="2"/><rect class="cls-1" x="54.28" y="122.5" width="23.67" height="2"/><rect class="cls-1" x="36.78" y="86" width="23.67" height="2"/><rect class="cls-1" x="48.28" y="90.34" width="51.62" height="2"/><rect class="cls-1" x="48.28" y="94.67" width="48.36" height="2"/><rect class="cls-1" x="48.28" y="99" width="23.67" height="2"/><rect class="cls-1" x="118.35" y="111.08" width="21.99" height="2"/><rect class="cls-1" x="118.35" y="116.15" width="21.99" height="2"/><rect class="cls-1" x="118.35" y="121.22" width="21.99" height="2"/><rect class="cls-1" x="118.35" y="126.29" width="21.99" height="2"/><path class="cls-3" d="M134,102a4.67,4.67,0,1,1-4.67-4.66A4.67,4.67,0,0,1,134,102Z"/><path class="cls-1" d="M129.35,107.63A5.67,5.67,0,1,1,135,102,5.68,5.68,0,0,1,129.35,107.63Zm0-9.33A3.67,3.67,0,1,0,133,102,3.67,3.67,0,0,0,129.35,98.3Z"/><rect class="cls-5" x="122.85" y="131.96" width="13" height="4.67"/><path class="cls-1" d="M135.85,137.63h-13a1,1,0,0,1-1-1V132a1,1,0,0,1,1-1h13a1,1,0,0,1,1,1v4.67A1,1,0,0,1,135.85,137.63Zm-12-2h11V133h-11Z"/><rect class="cls-1" x="142.43" y="111.08" width="21.99" height="2"/><rect class="cls-1" x="142.43" y="116.15" width="21.99" height="2"/><rect class="cls-1" x="142.43" y="121.22" width="21.99" height="2"/><rect class="cls-1" x="142.43" y="126.29" width="21.99" height="2"/><path class="cls-3" d="M158.09,102a4.67,4.67,0,1,1-4.66-4.66A4.66,4.66,0,0,1,158.09,102Z"/><path class="cls-1" d="M153.43,107.63a5.67,5.67,0,1,1,5.66-5.67A5.67,5.67,0,0,1,153.43,107.63Zm0-9.33a3.67,3.67,0,1,0,3.66,3.66A3.67,3.67,0,0,0,153.43,98.3Z"/><rect class="cls-5" x="146.93" y="131.96" width="13" height="4.67"/><path class="cls-1" d="M159.93,137.63h-13a1,1,0,0,1-1-1V132a1,1,0,0,1,1-1h13a1,1,0,0,1,1,1v4.67A1,1,0,0,1,159.93,137.63Zm-12-2h11V133h-11Z"/><rect class="cls-1" x="166.51" y="111.08" width="21.99" height="2"/><rect class="cls-1" x="166.51" y="116.15" width="21.99" height="2"/><rect class="cls-1" x="166.51" y="121.22" width="21.99" height="2"/><rect class="cls-1" x="166.51" y="126.29" width="21.99" height="2"/><path class="cls-3" d="M182.17,102a4.67,4.67,0,1,1-4.66-4.66A4.67,4.67,0,0,1,182.17,102Z"/><path class="cls-1" d="M177.51,107.63a5.67,5.67,0,1,1,5.66-5.67A5.67,5.67,0,0,1,177.51,107.63Zm0-9.33a3.67,3.67,0,1,0,3.66,3.66A3.66,3.66,0,0,0,177.51,98.3Z"/><rect class="cls-5" x="171.01" y="131.96" width="13" height="4.67"/><path class="cls-1" d="M184,137.63H171a1,1,0,0,1-1-1V132a1,1,0,0,1,1-1h13a1,1,0,0,1,1,1v4.67A1,1,0,0,1,184,137.63Zm-12-2h11V133H172Z"/><rect class="cls-1" x="117.47" y="53.63" width="15" height="2"/><rect class="cls-1" x="136.15" y="53.63" width="15" height="2"/><rect class="cls-1" x="154.83" y="53.63" width="15" height="2"/><rect class="cls-1" x="173.5" y="53.63" width="15" height="2"/><rect class="cls-1" x="214.97" y="45.51" width="18.18" height="2"/><rect class="cls-1" x="214.97" y="50.13" width="14.15" height="2"/><rect class="cls-1" x="214.97" y="54.75" width="18.18" height="2"/><rect class="cls-1" x="214.97" y="59.37" width="15.47" height="2"/><rect class="cls-1" x="214.97" y="63.99" width="7.55" height="2"/><path class="cls-1" d="M74.51,25.66H61.44V12.59H74.51Zm-11.07-2h9.07V14.59H63.44Z"/><rect class="cls-1" x="55" y="11.91" width="2" height="14.44"/><rect class="cls-1" x="57.98" y="12.87" width="2" height="12.51"/><rect class="cls-1" x="78.94" y="11.91" width="2" height="14.44"/><rect class="cls-1" x="75.96" y="12.87" width="2" height="12.51"/></g></g></svg>