<svg xmlns="http://www.w3.org/2000/svg" viewBox="0 0 196.14 219.43"><defs><style>.cls-1{fill:#2c5871;}.cls-2{fill:#34ca9d;}.cls-3{fill:#fff;}.cls-4{fill:#fcbe0f;}.cls-5{fill:#cceef5;}</style></defs><title>rocket</title><g id="Слой_2" data-name="Слой 2"><g id="Layer_4" data-name="Layer 4"><path class="cls-1" d="M44.46,110.35a1,1,0,0,1-1-1v-5a1,1,0,0,1,2,0v5A1,1,0,0,1,44.46,110.35Z"/><path class="cls-1" d="M47,107.84H42a1,1,0,0,1,0-2h5a1,1,0,0,1,0,2Z"/><path class="cls-1" d="M112.26,52.59a1,1,0,0,1-1-1v-5a1,1,0,0,1,2,0v5A1,1,0,0,1,112.26,52.59Z"/><path class="cls-1" d="M114.77,50.09h-5a1,1,0,0,1,0-2h5a1,1,0,1,1,0,2Z"/><path class="cls-1" d="M128.59,91.51a1,1,0,0,1-1-1v-5a1,1,0,0,1,2,0v5A1,1,0,0,1,128.59,91.51Z"/><path class="cls-1" d="M131.1,89h-5a1,1,0,0,1,0-2h5a1,1,0,0,1,0,2Z"/><path class="cls-1" d="M18.71,70.17a1,1,0,0,1-1-1v-5a1,1,0,0,1,2,0v5A1,1,0,0,1,18.71,70.17Z"/><path class="cls-1" d="M21.22,67.67h-5a1,1,0,1,1,0-2h5a1,1,0,0,1,0,2Z"/><path class="cls-1" d="M192.63,124.8a1,1,0,0,1-1-1v-5a1,1,0,1,1,2,0v5A1,1,0,0,1,192.63,124.8Z"/><path class="cls-1" d="M195.14,122.29h-5a1,1,0,0,1,0-2h5a1,1,0,0,1,0,2Z"/><path class="cls-1" d="M4.89,144.25a1,1,0,0,1-1-1v-5a1,1,0,0,1,2,0v5A1,1,0,0,1,4.89,144.25Z"/><path class="cls-1" d="M7.4,141.75h-5a1,1,0,1,1,0-2h5a1,1,0,1,1,0,2Z"/><path class="cls-2" d="M78,70.77a25.19,25.19,0,0,1,23.48,16,24.92,24.92,0,0,0,1.73-9.17,25.21,25.21,0,1,0-48.69,9.17A25.21,25.21,0,0,1,78,70.77Z"/><path class="cls-1" d="M101.45,87.81h0a1,1,0,0,1-.93-.64,24.21,24.21,0,0,0-45.1,0,1,1,0,0,1-.93.64,1,1,0,0,1-.93-.64,26.21,26.21,0,1,1,48.83,0A1,1,0,0,1,101.45,87.81ZM78,69.77a26,26,0,0,1,23.35,14.29A24.23,24.23,0,0,0,78,53.43a24.21,24.21,0,0,0-24.2,24.21,24.35,24.35,0,0,0,.86,6.42A26,26,0,0,1,78,69.77Z"/><path class="cls-2" d="M84.41,53.27V71.61a25.25,25.25,0,0,1,17,15.2,24.92,24.92,0,0,0,1.73-9.17A25.21,25.21,0,0,0,84.41,53.27Z"/><path class="cls-1" d="M101.45,87.81h0a1,1,0,0,1-.93-.64A24.26,24.26,0,0,0,84.15,72.58a1,1,0,0,1-.74-1V53.27a1,1,0,0,1,.39-.8,1,1,0,0,1,.86-.17,26.22,26.22,0,0,1,17.73,34.87A1,1,0,0,1,101.45,87.81Zm-16-17a26.31,26.31,0,0,1,15.9,13.21,23.84,23.84,0,0,0,.87-6.42,24.21,24.21,0,0,0-16.77-23Z"/><path class="cls-3" d="M78,74a29.43,29.43,0,0,1,8.9,1.38C91,67,93.55,56.11,93.55,44.23,93.55,25.36,87.21,9,78,1,68.73,9,62.4,25.36,62.4,44.23c0,11.88,2.52,22.76,6.68,31.19A29.37,29.37,0,0,1,78,74Z"/><path class="cls-1" d="M86.87,76.42a1,1,0,0,1-.3,0,28.64,28.64,0,0,0-17.19,0,1,1,0,0,1-1.2-.51C63.81,67,61.4,55.78,61.4,44.23c0-18.61,6.1-35.47,15.92-44a1,1,0,0,1,1.31,0c9.82,8.52,15.92,25.38,15.92,44,0,11.54-2.41,22.78-6.79,31.63A1,1,0,0,1,86.87,76.42ZM78,73a30.7,30.7,0,0,1,8.37,1.17c4-8.46,6.21-19.07,6.21-30C92.55,26.6,87,10.67,78,2.34,69,10.67,63.4,26.6,63.4,44.23c0,10.92,2.2,21.52,6.21,30A30.58,30.58,0,0,1,78,73Z"/><path class="cls-4" d="M78,18.87c3.92,0,7.75.14,11.5.38C86.72,11.49,82.74,5.13,78,1c-4.76,4.13-8.74,10.49-11.49,18.25C70.22,19,74.06,18.87,78,18.87Z"/><path class="cls-1" d="M66.48,20.25a1,1,0,0,1-.8-.39,1,1,0,0,1-.14-.94c2.82-8,6.9-14.44,11.78-18.67a1,1,0,0,1,1.31,0c4.88,4.24,9,10.7,11.78,18.68a1,1,0,0,1-1,1.33,170.82,170.82,0,0,0-22.85,0ZM78,2.34c-4,3.75-7.48,9.18-10,15.82a171.94,171.94,0,0,1,20,0C85.46,11.52,82,6.09,78,2.34Z"/><path class="cls-2" d="M78,50.9c-2,3.34-3.34,10.14-3.34,18S76,83.53,78,86.87c2-3.34,3.35-10.13,3.35-18S80,54.24,78,50.9Z"/><path class="cls-1" d="M78,87.87a1,1,0,0,1-.86-.49c-2.14-3.61-3.48-10.7-3.48-18.49S75,54,77.11,50.39a1,1,0,0,1,1.72,0C81,54,82.32,61.09,82.32,68.89S81,83.76,78.83,87.38A1,1,0,0,1,78,87.87ZM78,53.2c-1.44,3.65-2.34,9.49-2.34,15.69s.9,12,2.34,15.68c1.45-3.64,2.35-9.49,2.35-15.68S79.42,56.85,78,53.2Z"/><path class="cls-2" d="M77.88,51.07V86.7c0,.06.06.12.09.17,2-3.34,3.35-10.13,3.35-18S80,54.24,78,50.9A.91.91,0,0,1,77.88,51.07Z"/><path class="cls-1" d="M78,87.87h0a1,1,0,0,1-.86-.5.45.45,0,0,1-.06-.12,1.36,1.36,0,0,1-.17-.55V51.07a1,1,0,0,1,.15-.52l.07-.13A1,1,0,0,1,78,49.9a1,1,0,0,1,.87.49C81,54,82.32,61.09,82.32,68.89S81,83.76,78.83,87.38A1,1,0,0,1,78,87.87Zm.91-31.81V81.72a53.2,53.2,0,0,0,1.44-12.83A53.08,53.08,0,0,0,78.88,56.06Z"/><path class="cls-2" d="M78,44.23a8.75,8.75,0,1,1,8.75-8.75A8.76,8.76,0,0,1,78,44.23Z"/><path class="cls-1" d="M78,45.23h0a9.75,9.75,0,1,1,9.75-9.75A9.76,9.76,0,0,1,78,45.23Zm0-17.5a7.75,7.75,0,1,0,7.75,7.75A7.76,7.76,0,0,0,78,27.73Z"/><path class="cls-5" d="M78,30.15a5.33,5.33,0,1,0,5.34,5.33A5.33,5.33,0,0,0,78,30.15Z"/><path class="cls-1" d="M78,41.81a6.33,6.33,0,1,1,6.34-6.33A6.34,6.34,0,0,1,78,41.81Zm0-10.66a4.33,4.33,0,1,0,4.34,4.33A4.34,4.34,0,0,0,78,31.15Z"/><path class="cls-1" d="M55.54,167.75a12.7,12.7,0,0,1-12.68-12.68h2a10.68,10.68,0,0,0,21.36,0V84.3h2v70.77A12.7,12.7,0,0,1,55.54,167.75Z"/><path class="cls-1" d="M99.86,209.15A21.92,21.92,0,0,1,78,187.26V99.62h2v87.64a19.92,19.92,0,0,0,19.89,19.89Z"/><path class="cls-1" d="M127.8,185.93h0a39.2,39.2,0,0,1-6.68-.57l.34-2a37.25,37.25,0,0,0,6.34.54h0a37,37,0,0,0,37-37h2a39,39,0,0,1-39,39Z"/><path class="cls-1" d="M100,174.24a38.8,38.8,0,0,1-11.17-27.33V80.19h2v66.72a36.78,36.78,0,0,0,10.6,25.93Z"/><path class="cls-1" d="M128,177.17a32,32,0,1,1,32.05-32h-2a30.06,30.06,0,1,0-30.05,30Z"/><path class="cls-1" d="M128,167.21a22.07,22.07,0,0,1-15.63-6.46l1.41-1.42a20.1,20.1,0,1,0,0-28.42l-1.41-1.42A22.1,22.1,0,1,1,128,167.21Z"/><path class="cls-1" d="M32.08,214.2a32.05,32.05,0,1,1,4-63.86l-.25,2a30,30,0,1,0,26.08,33.55l2,.24A32.1,32.1,0,0,1,32.08,214.2Z"/><path class="cls-1" d="M32.07,205.33a23.76,23.76,0,0,1-2.9-.18,23.18,23.18,0,0,1,5.76-46l-.25,2a21.18,21.18,0,1,0,18.39,23.64l2,.25A23.21,23.21,0,0,1,32.07,205.33Z"/><path class="cls-1" d="M54.53,173.6A16.33,16.33,0,1,1,62,142.73l-.91,1.78a14.32,14.32,0,1,0,6.23,19.28l1.78.91a16.23,16.23,0,0,1-9.51,8.1A16.53,16.53,0,0,1,54.53,173.6Z"/><path class="cls-1" d="M162,205.86a16.36,16.36,0,0,1-16.34-16.34h2a14.34,14.34,0,0,0,28.68,0h2A16.36,16.36,0,0,1,162,205.86Z"/><path class="cls-1" d="M163.29,213.54a21.26,21.26,0,0,1-6.52-1A20.94,20.94,0,0,1,144.46,202l1.78-.91a19.13,19.13,0,0,0,34.06-17.43,19.15,19.15,0,0,0-25.75-8.31l-.91-1.79a21.13,21.13,0,1,1,9.65,40Z"/><path class="cls-1" d="M102.12,219.43a23.34,23.34,0,0,1-13.89-4.57l1.18-1.61a21.48,21.48,0,1,0-4.56-30L83.24,182a23.48,23.48,0,1,1,18.88,37.4Z"/></g></g></svg>