<svg xmlns="http://www.w3.org/2000/svg" viewBox="0 0 222.46 183.85"><defs><style>.cls-1{fill:#cceef5;}.cls-2{fill:#34ca9d;}.cls-3{fill:#2c5871;}.cls-4{fill:#fcbe0f;}.cls-5{fill:#fff;}.cls-6{fill:#f1fafc;}</style></defs><title>smart</title><g id="Слой_2" data-name="Слой 2"><g id="Layer_4" data-name="Layer 4"><path class="cls-1" d="M112.87,79a7.37,7.37,0,0,1,14.74,0v31.33h3.55v-8.55a7.37,7.37,0,0,1,6.68-7.34V23.08H77.15v87.23h35.72Z"/><rect class="cls-2" x="77.15" y="52.41" width="60.7" height="28.57"/><rect class="cls-3" x="77.15" y="50.8" width="60.7" height="2"/><rect class="cls-3" x="127.83" y="79.8" width="10.01" height="2"/><rect class="cls-3" x="77.15" y="79.8" width="35.35" height="2"/><rect class="cls-3" x="98.12" y="11.44" width="18.75" height="2"/><rect class="cls-3" x="102.8" y="35.75" width="15.43" height="2"/><rect class="cls-3" x="102.8" y="42.2" width="24.02" height="2"/><rect class="cls-4" x="85.12" y="31.99" width="12.5" height="12.5"/><path class="cls-3" d="M97.62,45.5H85.12a1,1,0,0,1-1-1V32a1,1,0,0,1,1-1h12.5a1,1,0,0,1,1,1V44.5A1,1,0,0,1,97.62,45.5Zm-11.5-2h10.5V33H86.12Z"/><path class="cls-3" d="M58.63,35.9H36.37a1,1,0,0,1-1-1V12.65a1,1,0,0,1,1-1H58.63a1,1,0,0,1,1,1V34.9A1,1,0,0,1,58.63,35.9Zm-21.26-2H57.63V13.65H37.37Z"/><path class="cls-3" d="M192.68,89.32H165.06a1,1,0,0,1-1-1V60.7a1,1,0,0,1,1-1h27.62a1,1,0,0,1,1,1V88.32A1,1,0,0,1,192.68,89.32Zm-26.62-2h25.62V61.7H166.06Z"/><path class="cls-3" d="M53.63,134.28H31.37a1,1,0,0,1-1-1V111a1,1,0,0,1,1-1H53.63a1,1,0,0,1,1,1v22.26A1,1,0,0,1,53.63,134.28Zm-21.26-2H52.63V112H32.37Z"/><rect class="cls-3" x="102.8" y="64.29" width="15.43" height="2"/><rect class="cls-3" x="102.8" y="70.73" width="11.03" height="2"/><rect class="cls-4" x="85.12" y="60.52" width="12.5" height="12.5"/><path class="cls-3" d="M97.62,74H85.12a1,1,0,0,1-1-1V60.52a1,1,0,0,1,1-1h12.5a1,1,0,0,1,1,1V73A1,1,0,0,1,97.62,74Zm-11.5-2h10.5V61.52H86.12Z"/><rect class="cls-3" x="102.8" y="92.48" width="10.37" height="2"/><rect class="cls-3" x="102.8" y="98.93" width="10.37" height="2"/><rect class="cls-4" x="85.12" y="88.72" width="12.5" height="12.5"/><path class="cls-3" d="M97.62,102.23H85.12a1,1,0,0,1-1-1V88.72a1,1,0,0,1,1-1h12.5a1,1,0,0,1,1,1v12.51A1,1,0,0,1,97.62,102.23Zm-11.5-2h10.5V89.72H86.12Z"/><path class="cls-5" d="M174.85,108.8a7.36,7.36,0,0,0-7.06,5.27,19.56,19.56,0,0,0-3.6-.55v-5a7.37,7.37,0,1,0-14.74,0v5H145.9V101.76a7.37,7.37,0,0,0-14.74,0V113.5a20.64,20.64,0,0,0-3.55.48V79a7.37,7.37,0,0,0-14.74,0v52.8c0,.27,0,.54,0,.82V151l-3.4-3.4V132.85A10.88,10.88,0,0,0,98.55,122H94.93c-.16,0-.3,0-.46,0v13.63H94.4V153.7l24.4,23.88A19.09,19.09,0,0,0,132,182.85h31.1a19.13,19.13,0,0,0,19.14-19.14V116.16A7.36,7.36,0,0,0,174.85,108.8Z"/><path class="cls-3" d="M163.07,183.85H132a20,20,0,0,1-13.85-5.55L93.7,154.42a1,1,0,0,1-.3-.72V135.62a.9.9,0,0,1,.07-.37V122a1,1,0,0,1,.93-1h.11l.42,0h3.62a11.89,11.89,0,0,1,11.88,11.88v14.31l1.4,1.39v-16a5.83,5.83,0,0,1,0-.59V79a8.37,8.37,0,0,1,16.74,0v33.78c.51-.08,1-.15,1.55-.19V101.76a8.37,8.37,0,0,1,16.74,0v10.71h1.55v-4a8.37,8.37,0,1,1,16.74,0v4.13c.66.07,1.32.17,2,.3a8.36,8.36,0,0,1,16.06,3.26v47.55A20.16,20.16,0,0,1,163.07,183.85ZM95.4,153.28l24.1,23.59a18,18,0,0,0,12.47,5h31.1a18.16,18.16,0,0,0,18.14-18.14V116.16a6.36,6.36,0,0,0-12.46-1.8,1,1,0,0,1-1.21.68,18.67,18.67,0,0,0-3.41-.52,1,1,0,0,1-.94-1v-5a6.37,6.37,0,1,0-12.74,0v5a1,1,0,0,1-1,1H145.9a1,1,0,0,1-1-1V101.76a6.37,6.37,0,0,0-12.74,0V113.5a1,1,0,0,1-1,1,17.77,17.77,0,0,0-3.36.46,1,1,0,0,1-.85-.2,1,1,0,0,1-.38-.78V79a6.37,6.37,0,0,0-12.74,0v52.8l0,.37c0,.15,0,.3,0,.45V151a1,1,0,0,1-1.71.7l-3.4-3.39a1,1,0,0,1-.29-.71V132.85A9.89,9.89,0,0,0,98.55,123H95.47v12.66a1,1,0,0,1-.07.37Z"/><path class="cls-3" d="M112.83,139.71h-3.4a1,1,0,0,1-1-1v-5.86A9.89,9.89,0,0,0,98.55,123H95.47v12.66a1,1,0,0,1-.07.37v2.71a1,1,0,0,1-1,1H81.87a12.25,12.25,0,0,1-12.24-12.24V12.24A12.25,12.25,0,0,1,81.87,0h51.26a12.25,12.25,0,0,1,12.23,12.24v85a1,1,0,0,1-1.79.61,6.37,6.37,0,0,0-11.41,3.89V113.5a1,1,0,0,1-1,1,17.77,17.77,0,0,0-3.36.46,1,1,0,0,1-.85-.2,1,1,0,0,1-.38-.78V79a6.37,6.37,0,0,0-12.74,0v52.8l0,.37c0,.15,0,.3,0,.45v6.11A1,1,0,0,1,112.83,139.71Zm-2.4-2h1.4V132.6a5.83,5.83,0,0,1,0-.59V79a8.37,8.37,0,0,1,16.74,0v33.78c.51-.08,1-.15,1.55-.19V101.76a8.37,8.37,0,0,1,13.2-6.84V12.24A10.24,10.24,0,0,0,133.13,2H81.87A10.25,10.25,0,0,0,71.63,12.24V127.47a10.25,10.25,0,0,0,10.24,10.24H93.4v-2.09a.9.9,0,0,1,.07-.37V122a1,1,0,0,1,.93-1h.11l.42,0h3.62a11.89,11.89,0,0,1,11.88,11.88Z"/><path class="cls-3" d="M132.16,111.31h-5.55V79a6.37,6.37,0,0,0-12.74,0v32.33H76.15V22.08h62.69V95.34l-.9.08a6.34,6.34,0,0,0-5.78,6.34Zm-3.55-2h1.55v-7.55a8.33,8.33,0,0,1,6.68-8.2V24.08H78.15v85.23h33.72V79a8.37,8.37,0,0,1,16.74,0Z"/><rect class="cls-3" y="92.94" width="61.5" height="2"/><circle class="cls-6" cx="27.75" cy="93.69" r="4.25"/><path class="cls-3" d="M27.75,98.94A5.25,5.25,0,1,1,33,93.69,5.26,5.26,0,0,1,27.75,98.94Zm0-8.5A3.25,3.25,0,1,0,31,93.69,3.26,3.26,0,0,0,27.75,90.44Z"/><path class="cls-4" d="M24.19,53.31a5.63,5.63,0,0,0-4.82,2.88,5.66,5.66,0,0,0-4.89-2.77,5.9,5.9,0,0,0-5.59,6.22,6.67,6.67,0,0,0,.3,1.88c.44,1.93,3.62,4.74,6.55,7,1.43,1.1,3.83,2.74,3.83,2.75a41.4,41.4,0,0,0,3.75-2.83c2.87-2.35,6-5.26,6.36-7.21a6.38,6.38,0,0,0,.25-1.88A5.88,5.88,0,0,0,24.19,53.31Z"/><path class="cls-3" d="M18.57,73.12v-1.3c-.78-.54-2.36-1.65-3.44-2.48-4.3-3.35-6.49-5.77-6.91-7.6a7,7,0,0,1-.33-2.09A7.49,7.49,0,0,1,10,54.36a6.38,6.38,0,0,1,4.52-1.94h0a6.63,6.63,0,0,1,4.87,2.1,6.52,6.52,0,0,1,4.82-2.21h.13a6.92,6.92,0,0,1,6.63,7,7.61,7.61,0,0,1-.29,2.19c-.36,1.76-2.55,4.3-6.69,7.7a41.81,41.81,0,0,1-3.84,2.89Zm-4-18.7a4.4,4.4,0,0,0-3.16,1.35,5.4,5.4,0,0,0-1.5,3.86,5.18,5.18,0,0,0,.26,1.58c.19.83,1.22,2.66,6.21,6.55,1,.76,2.43,1.77,3.23,2.33.82-.57,1.88-1.39,3.09-2.39,5.06-4.14,5.89-6,6-6.64a5.51,5.51,0,0,0,.23-1.67,4.92,4.92,0,0,0-4.63-5.08,4.65,4.65,0,0,0-4.06,2.38l-.84,1.48-.89-1.46A4.61,4.61,0,0,0,14.55,54.42Z"/><path class="cls-3" d="M221.46,25.87H200.93a1,1,0,0,1-1-1V8.54a1,1,0,0,1,1-1h20.53a1,1,0,0,1,1,1V24.87A1,1,0,0,1,221.46,25.87Zm-19.53-2h18.53V9.54H201.93Z"/><path class="cls-3" d="M217.63,11.21a1,1,0,0,1-1-1V6.87a1,1,0,0,1,2,0v3.34A1,1,0,0,1,217.63,11.21Z"/><path class="cls-3" d="M204.88,11.21a1,1,0,0,1-1-1V6.87a1,1,0,0,1,2,0v3.34A1,1,0,0,1,204.88,11.21Z"/><path class="cls-3" d="M221.41,14.44H201.07a.5.5,0,0,1-.5-.5.51.51,0,0,1,.5-.5h20.34a.51.51,0,0,1,.5.5A.5.5,0,0,1,221.41,14.44Z"/><polygon class="cls-3" points="205.61 16.47 203.67 16.47 203.67 18.41 205.61 18.41 205.61 16.47 205.61 16.47"/><polygon class="cls-3" points="208.97 16.47 207.03 16.47 207.03 18.41 208.97 18.41 208.97 16.47 208.97 16.47"/><polygon class="cls-3" points="212.33 16.47 210.39 16.47 210.39 18.41 212.33 18.41 212.33 16.47 212.33 16.47"/><polygon class="cls-3" points="215.69 16.47 213.74 16.47 213.74 18.41 215.69 18.41 215.69 16.47 215.69 16.47"/><polygon class="cls-3" points="219.04 16.47 217.1 16.47 217.1 18.41 219.04 18.41 219.04 16.47 219.04 16.47"/><polygon class="cls-3" points="205.61 19.59 203.67 19.59 203.67 21.53 205.61 21.53 205.61 19.59 205.61 19.59"/><polygon class="cls-3" points="208.97 19.59 207.03 19.59 207.03 21.53 208.97 21.53 208.97 19.59 208.97 19.59"/><polygon class="cls-3" points="212.33 19.59 210.39 19.59 210.39 21.53 212.33 21.53 212.33 19.59 212.33 19.59"/><polygon class="cls-3" points="215.69 19.59 213.74 19.59 213.74 21.53 215.69 21.53 215.69 19.59 215.69 19.59"/><polygon class="cls-3" points="219.04 19.59 217.1 19.59 217.1 21.53 219.04 21.53 219.04 19.59 219.04 19.59"/><path class="cls-4" d="M171,20.17a9.25,9.25,0,0,0-9.25,9.26c0,5.11,9.25,13,9.25,13s9.25-7.88,9.25-13A9.25,9.25,0,0,0,171,20.17Zm0,13.26a4,4,0,1,1,4-4A4,4,0,0,1,171,33.43Z"/><path class="cls-3" d="M171,43.74l-.65-.55c-1-.84-9.6-8.35-9.6-13.76a10.25,10.25,0,1,1,20.5,0c0,5.41-8.62,12.92-9.6,13.76Zm0-22.57a8.27,8.27,0,0,0-8.25,8.26c0,3.51,5.46,9.15,8.25,11.66,2.79-2.51,8.25-8.15,8.25-11.66A8.27,8.27,0,0,0,171,21.17Zm0,13.26a5,5,0,1,1,5-5A5,5,0,0,1,171,34.43Zm0-8a3,3,0,1,0,3,3A3,3,0,0,0,171,26.43Z"/><path class="cls-3" d="M172.63,84.8a1,1,0,0,1-1-.71l-3-10.06a1,1,0,0,1,.68-1.24l5-1.49a1,1,0,0,1,.76.08,1,1,0,0,1,.48.6l3,10.06a1,1,0,0,1-.67,1.24l-5.05,1.48A.86.86,0,0,1,172.63,84.8Zm-1.72-10.38,2.4,8.14,3.12-.92L174,73.5Z"/><path class="cls-3" d="M183.71,80.82a4.86,4.86,0,0,1-.69,0c-.51-.06-1.28-.13-2.15-.2l-1.31-.11a8.19,8.19,0,0,0-2.52.07,1,1,0,0,1-1.19-.69L174,73.71a1,1,0,0,1,.34-1.07,19.46,19.46,0,0,0,3.52-3.93,8.05,8.05,0,0,0,.17-2.67,1.47,1.47,0,0,1,.36-1.13,2.86,2.86,0,0,1,1.93-.71,1.78,1.78,0,0,1,1.32.63,5.21,5.21,0,0,1,.94,3.88c0,.21-.06.44-.09.67l-.06.39c0,.12,0,.24,0,.36a12.39,12.39,0,0,0,3.06.28h.34A2.93,2.93,0,0,1,188.28,75a3.46,3.46,0,0,1,0,.56,2.59,2.59,0,0,1-.78,1.71,2.64,2.64,0,0,1-1.23,2s0,.08,0,.13C186.05,80,185.47,80.82,183.71,80.82ZM178.4,78.4c.38,0,.83,0,1.34.07l1.3.11c.91.07,1.71.14,2.22.21.13,0,.29,0,.45,0a1.36,1.36,0,0,0,.7-.13.76.76,0,0,1,0-.17,1,1,0,0,1,.65-.83.61.61,0,0,0,.44-.56.33.33,0,0,0,0-.14,1,1,0,0,1,.48-1,.6.6,0,0,0,.31-.49.58.58,0,0,0-.05-.29A1,1,0,0,1,186.5,74a.89.89,0,0,0,.31-.68.94.94,0,0,0-.94-.93h-.36c-3.75,0-4.41-.68-4.66-.94a1.38,1.38,0,0,1-.41-1c0-.26,0-.56.05-.9l.06-.48c0-.19.06-.38.07-.55a3.51,3.51,0,0,0-.38-2.33l-.15,0a9.27,9.27,0,0,1-.31,3.16,1.07,1.07,0,0,1-.07.19,20.34,20.34,0,0,1-3.57,4.18l1.38,4.68A8.14,8.14,0,0,1,178.4,78.4Z"/><path class="cls-3" d="M47.5,28.56a7,7,0,0,1-6.71-4.73.94.94,0,0,1,0-.62,7.12,7.12,0,0,1,13.42,0,.94.94,0,0,1,0,.62A7,7,0,0,1,47.5,28.56Zm-4.7-5a5.15,5.15,0,0,0,9.4,0,5.15,5.15,0,0,0-9.4,0Z"/><path class="cls-3" d="M47.5,26.94a3.42,3.42,0,0,1-3.42-3.42,1,1,0,1,1,2,0A1.42,1.42,0,1,0,47.5,22.1a1,1,0,0,1,0-2,3.42,3.42,0,1,1,0,6.84Z"/><path class="cls-3" d="M40.3,127.06a1.43,1.43,0,0,1-1.4-1.52v-6.78a1.43,1.43,0,0,1,1.4-1.52,1.62,1.62,0,0,1,.83.24L47,120.87a1.42,1.42,0,0,1,0,2.56l-5.87,3.4A1.71,1.71,0,0,1,40.3,127.06Zm.6-7.4v5l4.32-2.49Z"/><rect class="cls-3" x="205.93" y="94.93" width="9.11" height="2"/><polygon class="cls-3" points="202.75 94.8 200.5 94.8 200.5 97.05 202.75 97.05 202.75 94.8 202.75 94.8"/><rect class="cls-3" x="205.93" y="101" width="9.11" height="2"/><polygon class="cls-3" points="202.75 100.88 200.5 100.88 200.5 103.13 202.75 103.13 202.75 100.88 202.75 100.88"/><rect class="cls-3" x="205.93" y="107.08" width="9.11" height="2"/><polygon class="cls-3" points="202.75 106.95 200.5 106.95 200.5 109.2 202.75 109.2 202.75 106.95 202.75 106.95"/></g></g></svg>