<svg xmlns="http://www.w3.org/2000/svg" viewBox="0 0 110 110"><defs><style>.cls-1{isolation:isolate;}.cls-2{fill:#fff;}.cls-3{fill:#34495e;}.cls-4{fill:#aab5bd;}.cls-5{fill:#ff7059;}.cls-6{fill:#cdd3da;mix-blend-mode:multiply;}.cls-7{fill:#e6eaee;}.cls-8{fill:#ffd160;}.cls-9{fill:#f7b64d;}.cls-10{fill:#283a4d;}</style></defs><title>target</title><g class="cls-1"><g id="Слой_2" data-name="Слой 2"><g id="Режим_изоляции" data-name="Режим изоляции"><path class="cls-2" d="M105.65,55A50.65,50.65,0,1,1,55,4.35,50.65,50.65,0,0,1,105.65,55Z"/><path class="cls-3" d="M55,110a55,55,0,1,1,55-55A55.06,55.06,0,0,1,55,110ZM55,9.08A45.92,45.92,0,1,0,100.92,55,46,46,0,0,0,55,9.08Z"/><path class="cls-4" d="M55,86.45A31.45,31.45,0,1,1,86.45,55,31.49,31.49,0,0,1,55,86.45Zm0-53.82A22.37,22.37,0,1,0,77.37,55,22.4,22.4,0,0,0,55,32.63Z"/><circle class="cls-5" cx="55" cy="55" r="8.41"/><path class="cls-6" d="M67,61.38,55,55l6.38,12L91,96.57A54.43,54.43,0,0,0,96.57,91Z"/><polygon class="cls-7" points="66.96 48.62 55 55 61.38 43.04 66.96 48.62"/><polygon class="cls-4" points="55 55 66.96 48.62 65.21 46.86 55 55"/><rect class="cls-8" x="56.82" y="24.13" width="50.2" height="7.89" transform="translate(4.14 66.15) rotate(-45)"/><rect class="cls-9" x="58.73" y="28.75" width="50.2" height="2.48" transform="translate(3.34 68.06) rotate(-45)"/><polygon class="cls-3" points="59.68 52.5 55 55 57.49 50.31 59.68 52.5"/><polygon class="cls-10" points="59.68 52.5 55 55 59 51.82 59.68 52.5"/><rect class="cls-7" x="99" y="4.77" width="4.58" height="7.89" transform="translate(23.5 74.17) rotate(-45)"/><rect class="cls-4" x="100.91" y="9.39" width="4.58" height="2.48" transform="translate(22.71 76.09) rotate(-45)"/><path class="cls-3" d="M107.45,8.13a3.94,3.94,0,0,0,0-5.58h0a3.94,3.94,0,0,0-5.58,0L100.11,4.3l5.59,5.59Z"/><path class="cls-10" d="M103.94,8.13a4,4,0,0,0,1.16-2.79,3.9,3.9,0,0,0-2.19-3.52,3.84,3.84,0,0,1,1.75-.43,4,4,0,0,1,4,4,3.9,3.9,0,0,1-1.16,2.79L105.7,9.89Z"/></g></g></g></svg>